<?xml version="1.0" standalone="no"?>
<!DOCTYPE svg PUBLIC "-//W3C//DTD SVG 1.1//EN" "http://www.w3.org/Graphics/SVG/1.1/DTD/svg11.dtd" >
<svg xmlns="http://www.w3.org/2000/svg" xmlns:xlink="http://www.w3.org/1999/xlink" version="1.1">
<metadata>
Created by FontForge 20141024 at Fri Dec 18 05:52:15 2015
 By Jimmy Warting
Adrien Coquet &#38; Hugo Dath 2015
</metadata>
<defs>
<font id="Slot-Regular" horiz-adv-x="375" >
  <font-face 
    font-family="Slot"
    font-weight="400"
    font-stretch="normal"
    units-per-em="1000"
    panose-1="0 0 5 0 0 0 0 0 0 0"
    ascent="800"
    descent="-200"
    x-height="525"
    cap-height="700"
    bbox="-44.9615 -232 923 849.297"
    underline-thickness="50"
    underline-position="-50"
    unicode-range="U+0020-2260"
  />
<missing-glyph horiz-adv-x="500" 
d="M0 0v700h500v-700h-500zM250 395l170 255h-340zM280 350l170 -255v510zM80 50h340l-170 255zM50 605v-510l170 255z" />
    <glyph glyph-name=".notdef" horiz-adv-x="500" 
d="M0 0v700h500v-700h-500zM250 395l170 255h-340zM280 350l170 -255v510zM80 50h340l-170 255zM50 605v-510l170 255z" />
    <glyph glyph-name="A" unicode="A" 
d="M345 531v3c0 91 -71 165 -158 165c-86 0 -157 -74 -157 -165v-3c2 -21 19 -37 40 -37s38 16 40 37v3c0 23 8 45 24 61c14 16 33 24 53 24s39 -8 54 -24s24 -38 24 -61v-3c1 -21 19 -37 40 -37s38 16 40 37zM345 40v453c-11 -10 -25 -16 -40 -16c-16 0 -30 6 -40 16v-169
h-155v169c-10 -10 -24 -16 -40 -16s-30 6 -40 16v-453c0 -22 18 -40 40 -40s40 18 40 40v204h155v-204c0 -22 18 -40 40 -40s40 18 40 40z" />
    <glyph glyph-name="Aacute" unicode="&#xc1;" 
d="M147 738l91 33c3 1 6 3 9 5c18 12 23 37 10 56c-12 18 -38 23 -56 10l-79 -54c-10 -7 -15 -21 -10 -33c5 -14 21 -22 35 -17zM345 531v3c0 91 -71 165 -158 165c-86 0 -157 -74 -157 -165v-3c2 -21 19 -37 40 -37s38 16 40 37v3c0 23 8 45 24 61c14 16 33 24 53 24
s39 -8 54 -24s24 -38 24 -61v-3c1 -21 19 -37 40 -37s38 16 40 37zM345 40v453c-11 -10 -25 -16 -40 -16c-16 0 -30 6 -40 16v-169h-155v169c-10 -10 -24 -16 -40 -16s-30 6 -40 16v-453c0 -22 18 -40 40 -40s40 18 40 40v204h155v-204c0 -22 18 -40 40 -40s40 18 40 40z
" />
    <glyph glyph-name="Acircumflex" unicode="&#xc2;" 
d="M298 739c8 12 5 30 -7 38l-79 55c-3 2 -6 3 -10 5c-5 1 -10 2 -14 2c-8 0 -17 -2 -24 -7l-79 -55c-10 -7 -15 -20 -10 -32c5 -14 21 -22 35 -17l78 31l77 -31c12 -5 25 0 33 11zM345 531v3c0 91 -71 165 -158 165c-86 0 -157 -74 -157 -165v-3c2 -21 19 -37 40 -37
s38 16 40 37v3c0 23 8 45 24 61c14 16 33 24 53 24s39 -8 54 -24s24 -38 24 -61v-3c1 -21 19 -37 40 -37s38 16 40 37zM345 40v453c-11 -10 -25 -16 -40 -16c-16 0 -30 6 -40 16v-169h-155v169c-10 -10 -24 -16 -40 -16s-30 6 -40 16v-453c0 -22 18 -40 40 -40s40 18 40 40
v204h155v-204c0 -22 18 -40 40 -40s40 18 40 40z" />
    <glyph glyph-name="Adieresis" unicode="&#xc4;" 
d="M91 773c0 -22 18 -40 40 -40s40 18 40 40c0 23 -18 41 -40 41s-40 -18 -40 -41zM203 773c0 -22 18 -40 40 -40c23 0 41 18 41 40c0 23 -18 41 -41 41c-22 0 -40 -18 -40 -41zM345 531v3c0 91 -71 165 -158 165c-86 0 -157 -74 -157 -165v-3c2 -21 19 -37 40 -37
s38 16 40 37v3c0 23 8 45 24 61c14 16 33 24 53 24s39 -8 54 -24s24 -38 24 -61v-3c1 -21 19 -37 40 -37s38 16 40 37zM345 40v453c-11 -10 -25 -16 -40 -16c-16 0 -30 6 -40 16v-169h-155v169c-10 -10 -24 -16 -40 -16s-30 6 -40 16v-453c0 -22 18 -40 40 -40s40 18 40 40
v204h155v-204c0 -22 18 -40 40 -40s40 18 40 40z" />
    <glyph glyph-name="Agrave" unicode="&#xc0;" 
d="M136 771l91 -33c14 -5 30 3 35 17c5 12 0 26 -10 33l-79 54c-18 13 -44 8 -56 -10c-13 -19 -8 -44 10 -56c3 -2 6 -4 9 -5zM345 531v3c0 91 -71 165 -158 165c-86 0 -157 -74 -157 -165v-3c2 -21 19 -37 40 -37s38 16 40 37v3c0 23 8 45 24 61c14 16 33 24 53 24
s39 -8 54 -24s24 -38 24 -61v-3c1 -21 19 -37 40 -37s38 16 40 37zM345 40v453c-11 -10 -25 -16 -40 -16c-16 0 -30 6 -40 16v-169h-155v169c-10 -10 -24 -16 -40 -16s-30 6 -40 16v-453c0 -22 18 -40 40 -40s40 18 40 40v204h155v-204c0 -22 18 -40 40 -40s40 18 40 40z
" />
    <glyph glyph-name="Atilde" unicode="&#xc3;" 
d="M228 805l-59 35c-8 5 -20 6 -29 0l-73 -53c-8 -6 -12 -15 -10 -25c3 -12 16 -20 28 -17l71 27l61 -33c7 -4 16 -2 23 2l68 44c10 7 14 20 9 32s-20 17 -33 12zM345 531v3c0 91 -71 165 -158 165c-86 0 -157 -74 -157 -165v-3c2 -21 19 -37 40 -37s38 16 40 37v3
c0 23 8 45 24 61c14 16 33 24 53 24s39 -8 54 -24s24 -38 24 -61v-3c1 -21 19 -37 40 -37s38 16 40 37zM345 40v453c-11 -10 -25 -16 -40 -16c-16 0 -30 6 -40 16v-169h-155v169c-10 -10 -24 -16 -40 -16s-30 6 -40 16v-453c0 -22 18 -40 40 -40s40 18 40 40v204h155v-204
c0 -22 18 -40 40 -40s40 18 40 40z" />
    <glyph glyph-name="AE" unicode="&#xc6;" horiz-adv-x="750" 
d="M720 535c0 91 -71 165 -157 165c-87 0 -158 -74 -158 -165v-7c3 -19 20 -34 40 -34c22 0 40 18 40 41v4c3 45 36 81 78 81s77 -38 77 -85c0 -23 18 -41 40 -41s40 18 40 41zM345 531v3c0 91 -71 165 -158 165c-86 0 -157 -74 -157 -165v-3c2 -21 19 -37 40 -37
s38 16 40 37v3c0 23 8 45 24 61c14 16 33 24 53 24s39 -8 54 -24s24 -38 24 -61v-3c1 -21 19 -37 40 -37s38 16 40 37zM603 349c0 22 -18 40 -40 40h-78v105c-10 -10 -24 -17 -40 -17c-15 0 -29 7 -40 17v-288c11 10 25 16 40 16c16 0 30 -6 40 -16v103h78c22 0 40 18 40 40
zM345 40v453c-11 -10 -25 -16 -40 -16c-16 0 -30 6 -40 16v-169h-155v169c-10 -10 -24 -16 -40 -16s-30 6 -40 16v-453c0 -22 18 -40 40 -40s40 18 40 40v204h155v-204c0 -22 18 -40 40 -40s40 18 40 40zM720 165c0 7 -2 13 -4 18c-7 13 -20 22 -36 22s-29 -9 -36 -22
c-3 -5 -4 -11 -4 -18c0 -23 -9 -45 -24 -61c-14 -15 -33 -24 -53 -24c-21 0 -40 9 -54 24c-15 16 -24 38 -24 61c0 7 -1 13 -4 18c-7 13 -20 22 -36 22s-29 -9 -36 -22c-2 -5 -4 -11 -4 -18c0 -91 71 -165 158 -165c70 0 130 49 150 116c4 15 7 32 7 49z" />
    <glyph glyph-name="B" unicode="B" 
d="M70 496c-16 0 -29 9 -36 22c-2 5 -4 11 -4 18c0 17 3 34 7 49c20 67 80 115 149 116h1c87 0 158 -74 158 -165c0 -7 -2 -13 -4 -18c-7 -13 -21 -22 -36 -22c-16 0 -30 9 -36 22c-3 5 -4 11 -4 18c0 23 -9 44 -24 61c-15 15 -34 24 -54 24s-39 -9 -53 -24
c-16 -17 -24 -38 -24 -61c0 -7 -1 -13 -4 -18c-7 -13 -20 -22 -36 -22zM265 495c10 -10 24 -16 40 -16c15 0 29 6 40 15c0 -50 -22 -95 -55 -126c33 -30 55 -75 55 -125v-78c0 -91 -71 -165 -158 -165h-117c-22 0 -40 18 -40 40v455c10 -10 24 -16 40 -16s30 6 40 16v-86h77
h3c19 1 37 9 51 24c15 16 24 38 24 61v1zM265 165v78c0 23 -9 45 -24 61c-14 15 -32 24 -51 24h-3h-77v-248h77c20 0 39 9 54 24c15 16 24 38 24 61z" />
    <glyph glyph-name="C" unicode="C" 
d="M345 534c0 91 -71 165 -157 165c-87 0 -158 -74 -158 -165v-328c10 10 25 16 40 16c16 0 30 -6 40 -16v328c0 23 9 45 24 61c14 16 33 24 54 24c20 0 39 -8 53 -24c15 -16 24 -38 24 -61c0 -22 18 -40 40 -40s40 18 40 40zM187 0c87 0 158 74 158 165c0 22 -18 40 -40 40
s-40 -18 -40 -40c0 -23 -9 -45 -24 -61s-34 -24 -54 -24s-39 8 -53 24c-16 16 -24 38 -24 61c0 22 -18 40 -40 40s-40 -18 -40 -40c0 -91 71 -165 157 -165z" />
    <glyph glyph-name="Ccedilla" unicode="&#xc7;" 
d="M110 534v-328c-10 10 -24 16 -40 16c-15 0 -30 -6 -40 -16v328c0 92 71 166 158 166c86 0 157 -74 157 -166c0 -22 -18 -40 -40 -40s-40 18 -40 40c0 24 -9 45 -24 61c-14 16 -33 25 -53 25c-21 0 -40 -9 -54 -25c-15 -16 -24 -37 -24 -61zM305 205c22 0 40 -18 40 -40
c0 -69 -41 -128 -98 -153l-49 -50l-4 3c-17 8 -34 11 -45 13l23 23c-79 8 -142 78 -142 164v4c2 21 19 36 40 36s38 -15 40 -36v-4c0 -47 35 -85 78 -85c42 0 77 38 77 85c0 22 18 40 40 40zM136 -38c56 0 102 -44 102 -97c0 -54 -46 -97 -102 -97c-15 0 -28 12 -28 28
c0 15 13 28 28 28c26 0 46 18 46 41c0 22 -20 41 -46 41c-15 0 -28 12 -28 28c0 15 13 28 28 28z" />
    <glyph glyph-name="D" unicode="D" 
d="M30 534c0 -6 2 -12 4 -17c7 -14 20 -23 36 -23s29 9 36 23c3 5 4 11 4 17c0 23 9 45 24 61c14 16 34 25 54 25s39 -9 53 -25c15 -16 24 -38 24 -61c0 -6 1 -12 4 -17c7 -14 20 -23 36 -23s29 9 36 23c2 5 4 11 4 17c0 91 -71 166 -157 166h-1c-70 -1 -130 -49 -150 -116
c-4 -16 -7 -32 -7 -50zM110 37v457c-10 -10 -24 -17 -40 -17c-15 0 -30 7 -40 17v-457c0 -22 18 -40 40 -40c17 0 32 11 38 26c1 4 2 9 2 14zM345 165v329c-10 -10 -25 -17 -40 -17c-16 0 -30 7 -40 17v-329c0 -23 -9 -44 -24 -61c-14 -15 -33 -24 -53 -24s-40 9 -54 24
c-2 3 -5 5 -7 8v-75c0 -8 -1 -15 -4 -22c20 -9 42 -15 65 -15c86 0 157 74 157 165z" />
    <glyph glyph-name="Eth" unicode="&#xd0;" horiz-adv-x="600" 
d="M70 494c-16 0 -29 9 -36 23c-2 5 -4 11 -4 17c0 18 3 34 7 50c20 67 80 115 150 116h1c86 0 157 -75 157 -166c0 -6 -2 -12 -4 -17c-7 -14 -20 -23 -36 -23s-29 9 -36 23c-3 5 -4 11 -4 17c0 23 -9 45 -24 61c-14 16 -33 25 -53 25s-40 -9 -54 -25
c-15 -16 -24 -38 -24 -61c0 -6 -1 -12 -4 -17c-7 -14 -20 -23 -36 -23zM110 305v-268c0 -5 -1 -10 -2 -14c-6 -15 -21 -26 -38 -26c-22 0 -40 18 -40 40v268h-9c-22 0 -40 18 -40 40s18 40 40 40h9v109c10 -10 25 -17 40 -17c16 0 30 7 40 17v-109h68c22 0 40 -18 40 -40
s-18 -40 -40 -40h-68zM265 165v329c10 -10 24 -17 40 -17c15 0 30 7 40 17v-329c0 -91 -71 -165 -157 -165c-23 0 -45 6 -65 15c3 7 4 14 4 22v75c2 -3 5 -5 7 -8c14 -15 34 -24 54 -24s39 9 53 24c15 17 24 38 24 61z" />
    <glyph glyph-name="E" unicode="E" 
d="M345 535c0 91 -71 165 -157 165c-87 0 -158 -74 -158 -165v-7c3 -19 20 -34 40 -34c22 0 40 18 40 41v4c3 45 36 81 78 81s77 -38 77 -85c0 -23 18 -41 40 -41s40 18 40 41zM228 349c0 22 -18 40 -40 40h-78v105c-10 -10 -24 -17 -40 -17c-15 0 -29 7 -40 17v-288
c11 10 25 16 40 16c16 0 30 -6 40 -16v103h78c22 0 40 18 40 40zM345 165c0 7 -2 13 -4 18c-7 13 -20 22 -36 22s-29 -9 -36 -22c-3 -5 -4 -11 -4 -18c0 -23 -9 -45 -24 -61c-14 -15 -33 -24 -53 -24c-21 0 -40 9 -54 24c-15 16 -24 38 -24 61c0 7 -1 13 -4 18
c-7 13 -20 22 -36 22s-29 -9 -36 -22c-2 -5 -4 -11 -4 -18c0 -91 71 -165 158 -165c70 0 130 49 150 116c4 15 7 32 7 49z" />
    <glyph glyph-name="Eacute" unicode="&#xc9;" 
d="M147 738l91 33c3 1 6 3 9 5c18 12 23 37 10 56c-12 18 -38 23 -56 10l-79 -54c-10 -7 -15 -21 -10 -33c5 -14 21 -22 35 -17zM345 535c0 91 -71 165 -157 165c-87 0 -158 -74 -158 -165v-7c3 -19 20 -34 40 -34c22 0 40 18 40 41v4c3 45 36 81 78 81s77 -38 77 -85
c0 -23 18 -41 40 -41s40 18 40 41zM228 349c0 22 -18 40 -40 40h-78v105c-10 -10 -24 -17 -40 -17c-15 0 -29 7 -40 17v-288c11 10 25 16 40 16c16 0 30 -6 40 -16v103h78c22 0 40 18 40 40zM345 165c0 7 -2 13 -4 18c-7 13 -20 22 -36 22s-29 -9 -36 -22
c-3 -5 -4 -11 -4 -18c0 -23 -9 -45 -24 -61c-14 -15 -33 -24 -53 -24c-21 0 -40 9 -54 24c-15 16 -24 38 -24 61c0 7 -1 13 -4 18c-7 13 -20 22 -36 22s-29 -9 -36 -22c-2 -5 -4 -11 -4 -18c0 -91 71 -165 158 -165c70 0 130 49 150 116c4 15 7 32 7 49z" />
    <glyph glyph-name="Ecircumflex" unicode="&#xca;" 
d="M298 739c8 12 5 30 -7 38l-79 55c-3 2 -6 3 -10 5c-5 1 -10 2 -14 2c-8 0 -17 -2 -24 -7l-79 -55c-10 -7 -15 -20 -10 -32c5 -14 21 -22 35 -17l78 31l77 -31c12 -5 25 0 33 11zM345 535c0 91 -71 165 -157 165c-87 0 -158 -74 -158 -165v-7c3 -19 20 -34 40 -34
c22 0 40 18 40 41v4c3 45 36 81 78 81s77 -38 77 -85c0 -23 18 -41 40 -41s40 18 40 41zM228 349c0 22 -18 40 -40 40h-78v105c-10 -10 -24 -17 -40 -17c-15 0 -29 7 -40 17v-288c11 10 25 16 40 16c16 0 30 -6 40 -16v103h78c22 0 40 18 40 40zM345 165c0 7 -2 13 -4 18
c-7 13 -20 22 -36 22s-29 -9 -36 -22c-3 -5 -4 -11 -4 -18c0 -23 -9 -45 -24 -61c-14 -15 -33 -24 -53 -24c-21 0 -40 9 -54 24c-15 16 -24 38 -24 61c0 7 -1 13 -4 18c-7 13 -20 22 -36 22s-29 -9 -36 -22c-2 -5 -4 -11 -4 -18c0 -91 71 -165 158 -165c70 0 130 49 150 116
c4 15 7 32 7 49z" />
    <glyph glyph-name="Edieresis" unicode="&#xcb;" 
d="M91 773c0 -22 18 -40 40 -40s40 18 40 40c0 23 -18 41 -40 41s-40 -18 -40 -41zM203 773c0 -22 18 -40 40 -40c23 0 41 18 41 40c0 23 -18 41 -41 41c-22 0 -40 -18 -40 -41zM345 535c0 91 -71 165 -157 165c-87 0 -158 -74 -158 -165v-7c3 -19 20 -34 40 -34
c22 0 40 18 40 41v4c3 45 36 81 78 81s77 -38 77 -85c0 -23 18 -41 40 -41s40 18 40 41zM228 349c0 22 -18 40 -40 40h-78v105c-10 -10 -24 -17 -40 -17c-15 0 -29 7 -40 17v-288c11 10 25 16 40 16c16 0 30 -6 40 -16v103h78c22 0 40 18 40 40zM345 165c0 7 -2 13 -4 18
c-7 13 -20 22 -36 22s-29 -9 -36 -22c-3 -5 -4 -11 -4 -18c0 -23 -9 -45 -24 -61c-14 -15 -33 -24 -53 -24c-21 0 -40 9 -54 24c-15 16 -24 38 -24 61c0 7 -1 13 -4 18c-7 13 -20 22 -36 22s-29 -9 -36 -22c-2 -5 -4 -11 -4 -18c0 -91 71 -165 158 -165c70 0 130 49 150 116
c4 15 7 32 7 49z" />
    <glyph glyph-name="Egrave" unicode="&#xc8;" 
d="M136 771l91 -33c14 -5 30 3 35 17c5 12 0 26 -10 33l-79 54c-18 13 -44 8 -56 -10c-13 -19 -8 -44 10 -56c3 -2 6 -4 9 -5zM345 535c0 91 -71 165 -157 165c-87 0 -158 -74 -158 -165v-7c3 -19 20 -34 40 -34c22 0 40 18 40 41v4c3 45 36 81 78 81s77 -38 77 -85
c0 -23 18 -41 40 -41s40 18 40 41zM228 349c0 22 -18 40 -40 40h-78v105c-10 -10 -24 -17 -40 -17c-15 0 -29 7 -40 17v-288c11 10 25 16 40 16c16 0 30 -6 40 -16v103h78c22 0 40 18 40 40zM345 165c0 7 -2 13 -4 18c-7 13 -20 22 -36 22s-29 -9 -36 -22
c-3 -5 -4 -11 -4 -18c0 -23 -9 -45 -24 -61c-14 -15 -33 -24 -53 -24c-21 0 -40 9 -54 24c-15 16 -24 38 -24 61c0 7 -1 13 -4 18c-7 13 -20 22 -36 22s-29 -9 -36 -22c-2 -5 -4 -11 -4 -18c0 -91 71 -165 158 -165c70 0 130 49 150 116c4 15 7 32 7 49z" />
    <glyph glyph-name="F" unicode="F" horiz-adv-x="346" 
d="M307 641c14 -17 12 -42 -6 -56c-17 -14 -42 -12 -56 5c-15 19 -36 29 -58 29c-20 0 -39 -8 -53 -24c-15 -16 -24 -38 -24 -61c0 -22 -18 -40 -40 -40s-40 18 -40 40c0 91 71 165 157 165c47 0 90 -21 120 -58zM110 389h77c22 0 40 -18 40 -40c0 -23 -18 -40 -40 -40h-77
v-269c0 -22 -18 -40 -40 -40s-40 18 -40 40v453c11 -10 25 -16 40 -16c16 0 30 6 40 17v-105z" />
    <glyph glyph-name="G" unicode="G" 
d="M345 535c0 91 -71 165 -157 165c-87 0 -158 -74 -158 -165v-9c11 10 25 17 40 17c16 0 30 -7 40 -17v9c0 23 9 44 24 61c14 15 34 24 54 24s39 -9 53 -24c15 -17 24 -38 24 -61s18 -40 40 -40s40 17 40 40zM345 165v128c0 22 -18 40 -40 40h-4c-20 -2 -36 -20 -36 -40
v-128c0 -46 -35 -85 -77 -85c-43 0 -78 39 -78 85v320v4c-2 21 -19 37 -40 37s-38 -16 -40 -37v-4v-320c0 -91 71 -165 158 -165c86 0 157 74 157 165zM264 333h-51c-22 0 -40 -18 -40 -40c0 -23 18 -40 40 -40h35v40c0 15 6 29 16 40z" />
    <glyph glyph-name="H" unicode="H" 
d="M110 659v-210c-35 -18 -63 -48 -80 -84v294c0 22 18 40 40 40s40 -18 40 -40zM305 699c22 0 40 -18 40 -40v-294c-17 36 -46 66 -80 84v210c0 22 17 40 40 40zM265 430c45 -28 77 -78 80 -137v-11c-2 -20 -19 -36 -40 -36c-22 0 -40 18 -40 40v5c-2 21 -10 41 -24 56
c-15 15 -34 24 -54 24s-39 -9 -53 -24s-22 -34 -24 -54v-7c0 -22 -18 -40 -40 -40c-20 0 -37 15 -40 35v15c4 57 35 107 80 134c23 13 49 21 77 21s55 -8 78 -21zM30 40v205c11 -10 25 -16 40 -16c16 0 30 6 40 16v-205c0 -22 -18 -40 -40 -40s-40 18 -40 40zM265 40v205
c10 -10 24 -16 40 -16c15 0 29 6 40 16v-205c0 -22 -18 -40 -40 -40c-23 0 -40 18 -40 40z" />
    <glyph glyph-name="I" unicode="I" horiz-adv-x="140" 
d="M70 700c22 0 40 -18 40 -40v-135c-10 10 -24 16 -40 16c-15 0 -30 -6 -40 -16v135c0 22 18 40 40 40zM70 524c21 0 38 -15 40 -36v-448c0 -22 -18 -40 -40 -40s-40 18 -40 40v448c2 20 19 36 40 36z" />
    <glyph glyph-name="IJ" unicode="&#x132;" horiz-adv-x="505" 
d="M70 700c22 0 40 -18 40 -40v-135c-10 10 -24 16 -40 16c-15 0 -30 -6 -40 -16v135c0 22 18 40 40 40zM289 699h146c22 0 40 -18 40 -40v-453c-11 10 -25 16 -40 16c-16 0 -30 -6 -40 -16v413h-106c-23 0 -40 18 -40 40s17 40 40 40zM70 524c21 0 38 -15 40 -36v-4v-444
c0 -22 -18 -40 -40 -40s-40 18 -40 40v444v4c2 20 19 36 40 36zM435 205c22 0 40 -18 40 -40c0 -91 -71 -165 -158 -165c-86 0 -157 74 -157 165c0 22 18 40 40 40s40 -18 40 -40c0 -23 8 -45 24 -61c14 -16 33 -24 53 -24s39 8 54 24s24 38 24 61c0 22 18 40 40 40z" />
    <glyph glyph-name="Iacute" unicode="&#xcd;" horiz-adv-x="140" 
d="M140 832c13 -19 8 -44 -10 -56c-3 -2 -6 -4 -9 -5l-91 -33c-14 -5 -30 3 -35 17c-5 12 0 26 10 33l79 54c18 13 44 8 56 -10zM70 700c22 0 40 -18 40 -40v-135c-10 10 -24 16 -40 16c-15 0 -30 -6 -40 -16v135c0 22 18 40 40 40zM70 524c21 0 38 -15 40 -36v-4v-444
c0 -22 -18 -40 -40 -40s-40 18 -40 40v444v4c2 20 19 36 40 36z" />
    <glyph glyph-name="Icircumflex" unicode="&#xce;" horiz-adv-x="140" 
d="M94 832l79 -55c12 -8 15 -26 7 -38c-8 -11 -21 -16 -33 -11l-77 31l-78 -31c-14 -5 -30 3 -35 17c-5 12 0 25 10 32l79 55c7 5 16 7 24 7c4 0 9 -1 14 -2c4 -2 7 -3 10 -5zM70 700c22 0 40 -18 40 -40v-135c-10 10 -24 16 -40 16c-15 0 -30 -6 -40 -16v135
c0 22 18 40 40 40zM70 524c21 0 38 -15 40 -36v-4v-444c0 -22 -18 -40 -40 -40s-40 18 -40 40v444v4c2 20 19 36 40 36z" />
    <glyph glyph-name="Idieresis" unicode="&#xcf;" horiz-adv-x="140" 
d="M55 773c0 -22 -18 -40 -40 -40s-40 18 -40 40c0 23 18 41 40 41s40 -18 40 -41zM127 814c23 0 41 -18 41 -41c0 -22 -18 -40 -41 -40c-22 0 -40 18 -40 40c0 23 18 41 40 41zM70 700c22 0 40 -18 40 -40v-135c-10 10 -24 16 -40 16c-15 0 -30 -6 -40 -16v135
c0 22 18 40 40 40zM70 524c21 0 38 -15 40 -36v-448c0 -22 -18 -40 -40 -40s-40 18 -40 40v448c2 20 19 36 40 36z" />
    <glyph glyph-name="Igrave" unicode="&#xcc;" horiz-adv-x="140" 
d="M56 842l79 -54c10 -7 15 -21 10 -33c-5 -14 -21 -22 -35 -17l-91 33c-3 1 -6 3 -9 5c-18 12 -23 37 -10 56c12 18 38 23 56 10zM70 700c22 0 40 -18 40 -40v-135c-10 10 -24 16 -40 16c-15 0 -30 -6 -40 -16v135c0 22 18 40 40 40zM70 524c21 0 38 -15 40 -36v-4v-444
c0 -22 -18 -40 -40 -40s-40 18 -40 40v444v4c2 20 19 36 40 36z" />
    <glyph glyph-name="J" unicode="J" horiz-adv-x="365" 
d="M335 206v453c0 22 -18 40 -40 40h-146c-23 0 -40 -18 -40 -40s17 -40 40 -40h106v-413c10 10 24 16 40 16c15 0 29 -6 40 -16zM177 0c87 0 158 74 158 165c0 22 -18 40 -40 40s-40 -18 -40 -40c0 -23 -9 -45 -24 -61s-34 -24 -54 -24s-39 8 -53 24c-16 16 -24 38 -24 61
c0 22 -18 40 -40 40s-40 -18 -40 -40c0 -91 71 -165 157 -165z" />
    <glyph glyph-name="K" unicode="K" 
d="M345 484v4v172c0 22 -18 40 -40 40s-40 -18 -40 -40v-172v-4c0 -26 -12 -50 -29 -66c26 -8 50 -23 70 -42c24 29 39 67 39 108zM139 418c-18 16 -29 40 -29 66v4v170c0 23 -18 40 -40 40s-40 -17 -40 -40v-336c9 20 23 39 38 54c13 12 27 22 42 30c9 5 19 9 29 12zM305 0
c22 0 40 18 40 40v203c0 91 -71 165 -158 165c-86 0 -157 -74 -157 -165v-203c0 -22 18 -40 40 -40s40 18 40 40v203c0 23 8 44 24 61c14 15 33 24 53 24s39 -9 54 -24c15 -17 24 -38 24 -61v-203c0 -22 18 -40 40 -40z" />
    <glyph glyph-name="L" unicode="L" 
d="M110 206v452c0 22 -18 40 -40 40s-40 -18 -40 -40v-452c10 10 25 16 40 16c16 0 30 -6 40 -16zM187 0c87 0 158 74 158 165c0 22 -18 40 -40 40s-40 -18 -40 -40c0 -23 -9 -45 -24 -61s-34 -24 -54 -24s-39 8 -53 24c-16 16 -24 38 -24 61c0 22 -18 40 -40 40
s-40 -18 -40 -40c0 -91 71 -165 157 -165z" />
    <glyph glyph-name="M" unicode="M" horiz-adv-x="610" 
d="M580 40v494c0 91 -71 165 -158 165c-41 0 -78 -16 -106 -43c19 -22 33 -48 41 -78c3 6 7 12 12 17c14 15 33 24 53 24s39 -9 54 -24c15 -16 24 -38 24 -61v-494c0 -22 18 -40 40 -40s40 18 40 40zM345 533v5c-1 40 -16 77 -40 105c-29 34 -71 55 -117 55
c-87 0 -158 -74 -158 -165v-4c2 -21 19 -37 40 -37s38 16 40 37v4c0 47 35 85 78 85c42 0 77 -38 77 -85v-4c2 -21 19 -37 40 -37s38 16 40 37v4zM70 475c-15 0 -29 7 -40 17v-452c0 -22 18 -40 40 -40s40 18 40 40v452c-10 -10 -24 -17 -40 -17zM345 40v452
c-10 -10 -25 -17 -40 -17c-16 0 -30 7 -40 17v-452c0 -22 18 -40 40 -40s40 18 40 40z" />
    <glyph glyph-name="N" unicode="N" 
d="M187 700c87 0 158 -74 158 -165v-3c-2 -21 -19 -37 -40 -37c-22 0 -39 16 -40 37v3c0 23 -9 44 -24 61c-15 15 -34 24 -54 24s-39 -9 -53 -24c-16 -17 -24 -38 -24 -61c0 -22 -18 -40 -40 -40s-40 18 -40 40c0 30 8 58 21 82l2 3c0 1 0 1 1 2c0 1 1 2 2 3c1 2 2 4 3 5
s2 2 2 3c1 2 3 4 4 5c1 2 3 4 5 6c0 1 1 2 2 3l2 2c2 2 3 4 5 5c28 28 66 46 108 46zM30 40v454c10 -10 24 -16 40 -16s30 6 40 16v-454c0 -22 -18 -40 -40 -40s-40 18 -40 40zM265 40v454c10 -10 24 -16 40 -16c15 0 29 6 40 16v-454c0 -22 -18 -40 -40 -40s-40 18 -40 40z
" />
    <glyph glyph-name="Ntilde" unicode="&#xd1;" 
d="M156 772l-71 -27c-12 -3 -25 5 -28 17c-2 10 2 19 10 25l73 53c9 6 21 5 29 0l59 -35l56 24c13 5 28 0 33 -12s1 -25 -9 -32l-68 -44c-7 -4 -16 -6 -23 -2zM187 700c87 0 158 -74 158 -165v-3c-2 -21 -19 -37 -40 -37c-22 0 -39 16 -40 37v3c0 23 -9 44 -24 61
c-15 15 -34 24 -54 24s-39 -9 -53 -24c-16 -17 -24 -38 -24 -61c0 -22 -18 -40 -40 -40s-40 18 -40 40c0 30 8 58 21 82l2 3c0 1 0 1 1 2c0 1 1 2 2 3c1 2 2 4 3 5s2 2 2 3c1 2 3 4 4 5c1 2 3 4 5 6c0 1 1 2 2 3l2 2c2 2 3 4 5 5c28 28 66 46 108 46zM30 40v454
c10 -10 24 -16 40 -16s30 6 40 16v-454c0 -22 -18 -40 -40 -40s-40 18 -40 40zM265 40v454c10 -10 24 -16 40 -16c15 0 29 6 40 16v-454c0 -22 -18 -40 -40 -40s-40 18 -40 40z" />
    <glyph glyph-name="O" unicode="O" 
d="M188 699c86 0 157 -74 157 -165v-328c-10 10 -25 16 -40 16c-16 0 -30 -6 -40 -16v328c0 23 -9 45 -24 61c-14 16 -33 24 -53 24c-21 0 -40 -8 -54 -24c-15 -16 -24 -38 -24 -61v-328c-10 10 -24 16 -40 16c-15 0 -30 -6 -40 -16v328c0 91 71 165 158 165zM305 205
c22 0 40 -18 40 -40c0 -91 -71 -165 -158 -165c-86 0 -157 74 -157 165c0 22 18 40 40 40s40 -18 40 -40c0 -23 8 -45 24 -61c14 -16 33 -24 53 -24s39 8 54 24s24 38 24 61c0 22 18 40 40 40z" />
    <glyph glyph-name="Oacute" unicode="&#xd3;" 
d="M238 771l-91 -33c-14 -5 -30 3 -35 17c-5 12 0 26 10 33l79 54c18 13 44 8 56 -10c13 -19 8 -44 -10 -56c-3 -2 -6 -4 -9 -5zM188 699c86 0 157 -74 157 -165v-328c-10 10 -25 16 -40 16c-16 0 -30 -6 -40 -16v328c0 23 -9 45 -24 61c-14 16 -33 24 -53 24
c-21 0 -40 -8 -54 -24c-15 -16 -24 -38 -24 -61v-328c-10 10 -24 16 -40 16c-15 0 -30 -6 -40 -16v328c0 91 71 165 158 165zM305 205c22 0 40 -18 40 -40c0 -91 -71 -165 -158 -165c-86 0 -157 74 -157 165c0 22 18 40 40 40s40 -18 40 -40c0 -23 8 -45 24 -61
c14 -16 33 -24 53 -24s39 8 54 24s24 38 24 61c0 22 18 40 40 40z" />
    <glyph glyph-name="Ocircumflex" unicode="&#xd4;" 
d="M188 759l-78 -31c-14 -5 -30 3 -35 17c-5 12 0 25 10 32l79 55c7 5 16 7 24 7c4 0 9 -1 14 -2c4 -2 7 -3 10 -5l79 -55c12 -8 15 -26 7 -38c-8 -11 -21 -16 -33 -11zM188 699c86 0 157 -74 157 -165v-328c-10 10 -25 16 -40 16c-16 0 -30 -6 -40 -16v328
c0 23 -9 45 -24 61c-14 16 -33 24 -53 24c-21 0 -40 -8 -54 -24c-15 -16 -24 -38 -24 -61v-328c-10 10 -24 16 -40 16c-15 0 -30 -6 -40 -16v328c0 91 71 165 158 165zM305 205c22 0 40 -18 40 -40c0 -91 -71 -165 -158 -165c-86 0 -157 74 -157 165c0 22 18 40 40 40
s40 -18 40 -40c0 -23 8 -45 24 -61c14 -16 33 -24 53 -24s39 8 54 24s24 38 24 61c0 22 18 40 40 40z" />
    <glyph glyph-name="Odieresis" unicode="&#xd6;" 
d="M131 733c-22 0 -40 18 -40 40c0 23 18 41 40 41s40 -18 40 -41c0 -22 -18 -40 -40 -40zM243 733c-22 0 -40 18 -40 40c0 23 18 41 40 41c23 0 41 -18 41 -41c0 -22 -18 -40 -41 -40zM188 699c86 0 157 -74 157 -165v-328c-10 10 -25 16 -40 16c-16 0 -30 -6 -40 -16v328
c0 23 -9 45 -24 61c-14 16 -33 24 -53 24c-21 0 -40 -8 -54 -24c-15 -16 -24 -38 -24 -61v-328c-10 10 -24 16 -40 16c-15 0 -30 -6 -40 -16v328c0 91 71 165 158 165zM305 205c22 0 40 -18 40 -40c0 -91 -71 -165 -158 -165c-86 0 -157 74 -157 165c0 22 18 40 40 40
s40 -18 40 -40c0 -23 8 -45 24 -61c14 -16 33 -24 53 -24s39 8 54 24s24 38 24 61c0 22 18 40 40 40z" />
    <glyph glyph-name="Ograve" unicode="&#xd2;" 
d="M127 776c-18 12 -23 37 -10 56c12 18 38 23 56 10l79 -54c10 -7 15 -21 10 -33c-5 -14 -21 -22 -35 -17l-91 33c-3 1 -6 3 -9 5zM188 699c86 0 157 -74 157 -165v-328c-10 10 -25 16 -40 16c-16 0 -30 -6 -40 -16v328c0 23 -9 45 -24 61c-14 16 -33 24 -53 24
c-21 0 -40 -8 -54 -24c-15 -16 -24 -38 -24 -61v-328c-10 10 -24 16 -40 16c-15 0 -30 -6 -40 -16v328c0 91 71 165 158 165zM305 205c22 0 40 -18 40 -40c0 -91 -71 -165 -158 -165c-86 0 -157 74 -157 165c0 22 18 40 40 40s40 -18 40 -40c0 -23 8 -45 24 -61
c14 -16 33 -24 53 -24s39 8 54 24s24 38 24 61c0 22 18 40 40 40z" />
    <glyph glyph-name="Otilde" unicode="&#xd5;" 
d="M156 772l-71 -27c-12 -3 -25 5 -28 17c-2 10 2 19 10 25l73 53c9 6 21 5 29 0l59 -35l56 24c13 5 28 0 33 -12s1 -25 -9 -32l-68 -44c-7 -4 -16 -6 -23 -2zM188 699c86 0 157 -74 157 -165v-328c-10 10 -25 16 -40 16c-16 0 -30 -6 -40 -16v328c0 23 -9 45 -24 61
c-14 16 -33 24 -53 24c-21 0 -40 -8 -54 -24c-15 -16 -24 -38 -24 -61v-328c-10 10 -24 16 -40 16c-15 0 -30 -6 -40 -16v328c0 91 71 165 158 165zM305 205c22 0 40 -18 40 -40c0 -91 -71 -165 -158 -165c-86 0 -157 74 -157 165c0 22 18 40 40 40s40 -18 40 -40
c0 -23 8 -45 24 -61c14 -16 33 -24 53 -24s39 8 54 24s24 38 24 61c0 22 18 40 40 40z" />
    <glyph glyph-name="OE" unicode="&#x152;" horiz-adv-x="750" 
d="M445 494c-20 0 -37 15 -40 34v7c0 91 71 165 158 165c86 0 157 -74 157 -165c0 -23 -18 -41 -40 -41s-40 18 -40 41c0 47 -35 85 -77 85s-75 -36 -78 -81v-4c0 -23 -18 -41 -40 -41zM188 699c86 0 157 -74 157 -165v-328c-10 10 -25 16 -40 16c-16 0 -30 -6 -40 -16v328
c0 23 -9 45 -24 61c-14 16 -33 24 -53 24c-21 0 -40 -8 -54 -24c-15 -16 -24 -38 -24 -61v-328c-10 10 -24 16 -40 16c-15 0 -30 -6 -40 -16v328c0 91 71 165 158 165zM485 309v-103c-10 10 -24 16 -40 16c-15 0 -29 -6 -40 -16v288c11 -10 25 -17 40 -17c16 0 30 7 40 17
v-105h78c22 0 40 -18 40 -40s-18 -40 -40 -40h-78zM305 205c22 0 40 -18 40 -40c0 -91 -71 -165 -158 -165c-86 0 -157 74 -157 165c0 22 18 40 40 40s40 -18 40 -40c0 -23 8 -45 24 -61c14 -16 33 -24 53 -24s39 8 54 24s24 38 24 61c0 22 18 40 40 40zM680 205
c16 0 29 -9 36 -22c2 -5 4 -11 4 -18c0 -17 -3 -34 -7 -49c-20 -67 -80 -116 -150 -116c-87 0 -158 74 -158 165c0 7 2 13 4 18c7 13 20 22 36 22s29 -9 36 -22c3 -5 4 -11 4 -18c0 -23 9 -45 24 -61c14 -15 33 -24 54 -24c20 0 39 9 53 24c15 16 24 38 24 61c0 7 1 13 4 18
c7 13 20 22 36 22z" />
    <glyph glyph-name="P" unicode="P" 
d="M30 536c0 -7 2 -13 4 -18c7 -13 20 -22 36 -22s29 9 36 22c3 5 4 11 4 18c0 23 8 44 24 61c14 15 33 24 53 24s39 -9 54 -24c15 -17 24 -38 24 -61c0 -7 1 -13 4 -18c6 -13 20 -22 36 -22c15 0 29 9 36 22c2 5 4 11 4 18c0 91 -71 165 -158 165h-1
c-69 -1 -129 -49 -149 -116c-4 -15 -7 -32 -7 -49zM345 386v106c-11 -10 -25 -16 -40 -16c-16 0 -30 6 -40 16v-106c0 -23 -9 -45 -24 -61s-34 -24 -54 -24s-39 8 -53 24c-16 16 -24 38 -24 61v106c-10 -10 -24 -16 -40 -16s-30 6 -40 16v-452c0 -22 18 -40 40 -40
s40 18 40 40v202c23 -13 49 -21 77 -21c87 0 158 74 158 165z" />
    <glyph glyph-name="Q" unicode="Q" horiz-adv-x="384" 
d="M345 206v328c0 91 -71 166 -158 166c-86 0 -157 -75 -157 -166v-328c10 10 24 16 40 16s30 -6 40 -16v328c0 23 8 45 24 61c14 16 33 25 53 25s39 -9 54 -25s24 -38 24 -61v-328c10 10 24 16 40 16c15 0 29 -6 40 -16zM345 165c0 7 -2 13 -4 18c-7 13 -21 22 -36 22
c-16 0 -30 -9 -36 -22c-3 -5 -4 -11 -4 -18c0 -23 -9 -45 -24 -61c-15 -15 -34 -24 -54 -24s-39 9 -53 24c-16 16 -24 38 -24 61c0 7 -1 13 -4 18c-7 13 -20 22 -36 22s-29 -9 -36 -22c-2 -5 -4 -11 -4 -18c0 -91 71 -165 157 -165h1c70 0 129 49 149 116c5 15 8 32 8 49z
M353 -22c18 13 21 38 8 56l-26 34c-14 -23 -34 -43 -56 -58l18 -24c8 -11 20 -16 32 -16c8 0 17 2 24 8z" />
    <glyph glyph-name="R" unicode="R" 
d="M30 536c0 -7 2 -13 4 -18c7 -13 20 -22 36 -22s29 9 36 22c3 5 4 11 4 18c0 23 8 44 24 61c14 15 33 24 53 24s39 -9 54 -24c15 -17 24 -38 24 -61c0 -7 1 -13 4 -18c6 -13 20 -22 36 -22c15 0 29 9 36 22c2 5 4 11 4 18c0 91 -71 165 -158 165h-1
c-69 -1 -129 -49 -149 -116c-4 -15 -7 -32 -7 -49zM329 60l-97 168c65 20 113 83 113 158v107c-11 -10 -25 -16 -40 -16c-16 0 -30 6 -40 16v-107c0 -23 -9 -45 -24 -61s-34 -24 -54 -24s-39 8 -53 24c-16 16 -24 38 -24 61v107c-10 -10 -24 -16 -40 -16s-30 6 -40 16v-453
c0 -22 18 -40 40 -40s40 18 40 40v202c9 -5 19 -10 29 -13l121 -209c7 -13 20 -20 34 -20c7 0 14 2 20 5c19 11 26 36 15 55z" />
    <glyph glyph-name="S" unicode="S" 
d="M30 534c0 -6 2 -12 4 -17c7 -14 20 -23 36 -23s29 9 36 23c3 5 4 11 4 17c0 23 8 45 24 61c14 16 33 25 53 25s39 -9 54 -25s24 -38 24 -61c0 -6 1 -12 4 -17c6 -14 20 -23 36 -23c15 0 29 9 36 23c2 5 4 11 4 17c0 91 -71 166 -158 166h-1c-69 -1 -129 -49 -149 -116
c-4 -16 -7 -32 -7 -50zM305 222c5 0 10 0 15 -2l-195 297c-7 -24 -29 -41 -55 -41c-5 0 -10 0 -15 2l195 -296c7 23 29 40 55 40zM345 165c0 7 -2 13 -4 18c-7 13 -21 22 -36 22c-16 0 -30 -9 -36 -22c-3 -5 -4 -11 -4 -18c0 -23 -9 -45 -24 -61c-15 -15 -34 -24 -54 -24
s-39 9 -53 24c-16 16 -24 38 -24 61c0 7 -1 13 -4 18c-7 13 -20 22 -36 22s-29 -9 -36 -22c-2 -5 -4 -11 -4 -18c0 -91 71 -165 157 -165h1c70 0 129 49 149 116c5 15 8 32 8 49z" />
    <glyph glyph-name="T" unicode="T" horiz-adv-x="363" 
d="M348 660c0 22 -18 40 -40 40h-253c-22 0 -40 -18 -40 -40s18 -40 40 -40h89v-95c10 10 24 16 40 16c15 0 29 -6 40 -16v95h84c22 0 40 18 40 40zM224 484v4c-2 21 -19 36 -40 36s-38 -16 -40 -36v-4v-444c0 -22 18 -40 40 -40s40 18 40 40v444z" />
    <glyph glyph-name="U" unicode="U" 
d="M110 205v454c0 22 -18 40 -40 40s-40 -18 -40 -40v-454c10 11 24 17 40 17s30 -6 40 -17zM345 205v454c0 22 -18 40 -40 40s-40 -18 -40 -40v-454c10 11 24 17 40 17c15 0 29 -6 40 -17zM345 165c-1 22 -18 40 -40 40s-40 -18 -40 -40c0 -23 -9 -45 -24 -61
s-34 -24 -54 -24s-39 8 -53 24c-16 16 -24 38 -24 61c0 22 -18 40 -40 40s-40 -18 -40 -40c0 -91 71 -165 157 -165c87 0 158 74 158 165z" />
    <glyph glyph-name="Uacute" unicode="&#xda;" 
d="M147 738l91 33c3 1 6 3 9 5c18 12 23 37 10 56c-12 18 -38 23 -56 10l-79 -54c-10 -7 -15 -21 -10 -33c5 -14 21 -22 35 -17zM110 205v454c0 22 -18 40 -40 40s-40 -18 -40 -40v-454c10 11 24 17 40 17s30 -6 40 -17zM345 205v454c0 22 -18 40 -40 40s-40 -18 -40 -40
v-454c10 11 24 17 40 17c15 0 29 -6 40 -17zM345 165c-1 22 -18 40 -40 40s-40 -18 -40 -40c0 -23 -9 -45 -24 -61s-34 -24 -54 -24s-39 8 -53 24c-16 16 -24 38 -24 61c0 22 -18 40 -40 40s-40 -18 -40 -40c0 -91 71 -165 157 -165c87 0 158 74 158 165z" />
    <glyph glyph-name="Ucircumflex" unicode="&#xdb;" 
d="M298 739c8 12 5 30 -7 38l-79 55c-3 2 -6 3 -10 5c-5 1 -10 2 -14 2c-8 0 -17 -2 -24 -7l-79 -55c-10 -7 -15 -20 -10 -32c5 -14 21 -22 35 -17l78 31l77 -31c12 -5 25 0 33 11zM110 205v454c0 22 -18 40 -40 40s-40 -18 -40 -40v-454c10 11 24 17 40 17s30 -6 40 -17z
M345 205v454c0 22 -18 40 -40 40s-40 -18 -40 -40v-454c10 11 24 17 40 17c15 0 29 -6 40 -17zM345 165c-1 22 -18 40 -40 40s-40 -18 -40 -40c0 -23 -9 -45 -24 -61s-34 -24 -54 -24s-39 8 -53 24c-16 16 -24 38 -24 61c0 22 -18 40 -40 40s-40 -18 -40 -40
c0 -91 71 -165 157 -165c87 0 158 74 158 165z" />
    <glyph glyph-name="Udieresis" unicode="&#xdc;" 
d="M91 773c0 -22 18 -40 40 -40s40 18 40 40c0 23 -18 41 -40 41s-40 -18 -40 -41zM203 773c0 -22 18 -40 40 -40c23 0 41 18 41 40c0 23 -18 41 -41 41c-22 0 -40 -18 -40 -41zM110 205v454c0 22 -18 40 -40 40s-40 -18 -40 -40v-454c10 11 24 17 40 17s30 -6 40 -17z
M345 205v454c0 22 -18 40 -40 40s-40 -18 -40 -40v-454c10 11 24 17 40 17c15 0 29 -6 40 -17zM345 165c-1 22 -18 40 -40 40s-40 -18 -40 -40c0 -23 -9 -45 -24 -61s-34 -24 -54 -24s-39 8 -53 24c-16 16 -24 38 -24 61c0 22 -18 40 -40 40s-40 -18 -40 -40
c0 -91 71 -165 157 -165c87 0 158 74 158 165z" />
    <glyph glyph-name="Ugrave" unicode="&#xd9;" 
d="M136 771l91 -33c14 -5 30 3 35 17c5 12 0 26 -10 33l-79 54c-18 13 -44 8 -56 -10c-13 -19 -8 -44 10 -56c3 -2 6 -4 9 -5zM110 205v454c0 22 -18 40 -40 40s-40 -18 -40 -40v-454c10 11 24 17 40 17s30 -6 40 -17zM345 205v454c0 22 -18 40 -40 40s-40 -18 -40 -40v-454
c10 11 24 17 40 17c15 0 29 -6 40 -17zM345 165c-1 22 -18 40 -40 40s-40 -18 -40 -40c0 -23 -9 -45 -24 -61s-34 -24 -54 -24s-39 8 -53 24c-16 16 -24 38 -24 61c0 22 -18 40 -40 40s-40 -18 -40 -40c0 -91 71 -165 157 -165c87 0 158 74 158 165z" />
    <glyph glyph-name="V" unicode="V" horiz-adv-x="411" 
d="M30 656l6 -134c11 11 24 18 39 19h3c15 0 28 -6 38 -15l-6 134c-1 22 -20 39 -42 38s-39 -19 -38 -42zM375 522l6 134c1 23 -16 41 -38 42s-41 -16 -42 -38l-6 -135c10 9 24 15 38 15h3c15 -1 29 -7 39 -18zM206 0c13 0 25 6 33 17l114 167c4 6 7 13 7 21l13 276
c1 22 -16 41 -38 42s-41 -16 -42 -38l-12 -265l-75 -110l-75 109l-13 267c-1 22 -20 39 -42 38s-39 -20 -38 -42l13 -278c1 -7 3 -14 7 -21l115 -166c7 -11 20 -17 33 -17z" />
    <glyph glyph-name="W" unicode="W" horiz-adv-x="611" 
d="M110 660v-454c-10 10 -24 17 -40 17c-15 0 -29 -7 -40 -17v454c0 22 18 40 40 40s40 -18 40 -40zM306 223h-1c-15 -1 -30 -8 -40 -18v455c0 22 18 40 40 40h1c22 0 40 -18 40 -40v-455c-10 10 -24 17 -40 18zM541 700c22 0 40 -18 40 -40v-454c-11 10 -25 17 -40 17
c-16 0 -30 -7 -40 -17v454c0 22 18 40 40 40zM188 80c28 0 52 17 66 42c7 -30 21 -57 40 -79c-28 -27 -66 -43 -106 -43c-87 0 -158 74 -158 165v4c2 21 19 37 40 37s38 -16 40 -37v-4c0 -46 35 -85 78 -85zM541 205c15 0 29 -9 35 -22c3 -5 5 -11 5 -18
c0 -17 -3 -34 -8 -49c-20 -67 -79 -115 -149 -116h-1c-86 0 -157 74 -157 165c0 7 1 13 4 18c7 13 20 22 36 22s29 -9 36 -22c2 -5 4 -11 4 -18c0 -23 8 -44 24 -61c14 -15 33 -24 53 -24s39 9 54 24c15 17 24 38 24 61c0 7 1 13 4 18c6 13 20 22 36 22z" />
    <glyph glyph-name="Wacute" unicode="&#x1e82;" horiz-adv-x="611" 
d="M351 771l-91 -33c-14 -5 -30 3 -35 17c-5 12 0 26 10 33l79 54c18 13 44 8 56 -10c13 -19 8 -44 -10 -56c-3 -2 -6 -4 -9 -5zM110 660v-454c-10 10 -24 17 -40 17c-15 0 -29 -7 -40 -17v454c0 22 18 40 40 40s40 -18 40 -40zM305 700h1c22 0 40 -18 40 -40v-455
c-10 10 -24 17 -40 18h-1c-15 -1 -30 -8 -40 -18v455c0 22 18 40 40 40zM541 700c22 0 40 -18 40 -40v-454c-11 10 -25 17 -40 17c-16 0 -30 -7 -40 -17v454c0 22 18 40 40 40zM188 80c28 0 52 17 66 42c7 -30 21 -57 40 -79c-28 -27 -66 -43 -106 -43
c-87 0 -158 74 -158 165v4c2 21 19 37 40 37s38 -16 40 -37v-4c0 -46 35 -85 78 -85zM541 205c15 0 29 -9 35 -22c3 -5 5 -11 5 -18c0 -17 -3 -34 -8 -49c-20 -67 -79 -115 -149 -116h-1c-86 0 -157 74 -157 165c0 7 1 13 4 18c7 13 20 22 36 22s29 -9 36 -22
c2 -5 4 -11 4 -18c0 -23 8 -44 24 -61c14 -15 33 -24 53 -24s39 9 54 24c15 17 24 38 24 61c0 7 1 13 4 18c6 13 20 22 36 22z" />
    <glyph glyph-name="Wcircumflex" unicode="&#x174;" horiz-adv-x="611" 
d="M306 759l-78 -31c-14 -5 -30 3 -35 17c-5 12 0 25 10 32l79 55c7 5 16 7 24 7c4 0 9 -1 14 -2c4 -2 7 -3 10 -5l79 -55c12 -8 15 -26 7 -38c-8 -11 -21 -16 -33 -11zM110 660v-454c-10 10 -24 17 -40 17c-15 0 -29 -7 -40 -17v454c0 22 18 40 40 40s40 -18 40 -40z
M305 700h1c22 0 40 -18 40 -40v-455c-10 10 -24 17 -40 18h-1c-15 -1 -30 -8 -40 -18v455c0 22 18 40 40 40zM541 700c22 0 40 -18 40 -40v-454c-11 10 -25 17 -40 17c-16 0 -30 -7 -40 -17v454c0 22 18 40 40 40zM188 80c28 0 52 17 66 42c7 -30 21 -57 40 -79
c-28 -27 -66 -43 -106 -43c-87 0 -158 74 -158 165v4c2 21 19 37 40 37s38 -16 40 -37v-4c0 -46 35 -85 78 -85zM541 205c15 0 29 -9 35 -22c3 -5 5 -11 5 -18c0 -17 -3 -34 -8 -49c-20 -67 -79 -115 -149 -116h-1c-86 0 -157 74 -157 165c0 7 1 13 4 18c7 13 20 22 36 22
s29 -9 36 -22c2 -5 4 -11 4 -18c0 -23 8 -44 24 -61c14 -15 33 -24 53 -24s39 9 54 24c15 17 24 38 24 61c0 7 1 13 4 18c6 13 20 22 36 22z" />
    <glyph glyph-name="Wdieresis" unicode="&#x1e84;" horiz-adv-x="611" 
d="M250 733c-22 0 -40 18 -40 40c0 23 18 41 40 41s40 -18 40 -41c0 -22 -18 -40 -40 -40zM362 733c-22 0 -40 18 -40 40c0 23 18 41 40 41c23 0 41 -18 41 -41c0 -22 -18 -40 -41 -40zM110 660v-454c-10 10 -24 17 -40 17c-15 0 -29 -7 -40 -17v454c0 22 18 40 40 40
s40 -18 40 -40zM265 205v455c0 22 18 40 40 40h1c22 0 40 -18 40 -40v-455c-10 10 -24 17 -40 18h-1c-15 -1 -30 -8 -40 -18zM541 700c22 0 40 -18 40 -40v-454c-11 10 -25 17 -40 17c-16 0 -30 -7 -40 -17v454c0 22 18 40 40 40zM188 80c28 0 52 17 66 42
c7 -30 21 -57 40 -79c-28 -27 -66 -43 -106 -43c-87 0 -158 74 -158 165v4c2 21 19 37 40 37s38 -16 40 -37v-4c0 -46 35 -85 78 -85zM541 205c15 0 29 -9 35 -22c3 -5 5 -11 5 -18c0 -17 -3 -34 -8 -49c-20 -67 -79 -115 -149 -116h-1c-86 0 -157 74 -157 165
c0 7 1 13 4 18c7 13 20 22 36 22s29 -9 36 -22c2 -5 4 -11 4 -18c0 -23 8 -44 24 -61c14 -15 33 -24 53 -24s39 9 54 24c15 17 24 38 24 61c0 7 1 13 4 18c6 13 20 22 36 22z" />
    <glyph glyph-name="Wgrave" unicode="&#x1e80;" horiz-adv-x="611" 
d="M250 776c-18 12 -23 37 -10 56c12 18 38 23 56 10l79 -54c10 -7 15 -21 10 -33c-5 -14 -21 -22 -35 -17l-91 33c-3 1 -6 3 -9 5zM110 660v-454c-10 10 -24 17 -40 17c-15 0 -29 -7 -40 -17v454c0 22 18 40 40 40s40 -18 40 -40zM305 700h1c22 0 40 -18 40 -40v-455
c-10 10 -24 17 -40 18h-1c-15 -1 -30 -8 -40 -18v455c0 22 18 40 40 40zM541 700c22 0 40 -18 40 -40v-454c-11 10 -25 17 -40 17c-16 0 -30 -7 -40 -17v454c0 22 18 40 40 40zM188 80c28 0 52 17 66 42c7 -30 21 -57 40 -79c-28 -27 -66 -43 -106 -43
c-87 0 -158 74 -158 165v4c2 21 19 37 40 37s38 -16 40 -37v-4c0 -46 35 -85 78 -85zM541 205c15 0 29 -9 35 -22c3 -5 5 -11 5 -18c0 -17 -3 -34 -8 -49c-20 -67 -79 -115 -149 -116h-1c-86 0 -157 74 -157 165c0 7 1 13 4 18c7 13 20 22 36 22s29 -9 36 -22
c2 -5 4 -11 4 -18c0 -23 8 -44 24 -61c14 -15 33 -24 53 -24s39 9 54 24c15 17 24 38 24 61c0 7 1 13 4 18c6 13 20 22 36 22z" />
    <glyph glyph-name="X" unicode="X" 
d="M110 540v119c0 23 -18 40 -40 40s-40 -17 -40 -40v-119c10 10 24 16 40 16s30 -6 40 -16zM345 540v119c0 23 -18 40 -40 40s-40 -17 -40 -40v-119c10 10 24 16 40 16c15 0 29 -6 40 -16zM345 499c0 22 -18 40 -40 40s-40 -18 -40 -40c0 -23 -9 -45 -24 -61
c-7 -8 -15 -13 -24 -17c-9 -5 -19 -7 -30 -7c-10 0 -20 2 -30 7c-8 4 -16 9 -23 17c-16 16 -24 38 -24 61c0 22 -18 40 -40 40s-40 -18 -40 -40c0 -28 7 -54 18 -78c9 -16 19 -30 32 -42c21 -21 48 -36 77 -42c10 -2 20 -3 30 -3c11 0 21 1 30 3c30 6 57 21 78 42
c12 12 23 26 31 42c12 23 19 50 19 78zM68 366c-24 -29 -38 -66 -38 -108v-218c0 -22 18 -40 40 -40s40 18 40 40v218c0 24 8 45 24 61c1 2 3 4 4 5c-26 8 -50 23 -70 42zM345 40v218c0 42 -15 79 -38 108c-20 -19 -44 -34 -71 -42c2 -1 4 -3 5 -5c15 -16 24 -37 24 -61
v-218c0 -22 18 -40 40 -40s40 18 40 40z" />
    <glyph glyph-name="Y" unicode="Y" 
d="M110 540v119c0 23 -18 40 -40 40s-40 -17 -40 -40v-119c10 10 24 16 40 16s30 -6 40 -16zM345 540v119c0 23 -18 40 -40 40s-40 -17 -40 -40v-119c10 10 24 16 40 16c15 0 29 -6 40 -16zM345 499c0 6 -2 12 -4 18c-7 13 -21 22 -36 22c-16 0 -30 -9 -36 -22
c-3 -6 -4 -12 -4 -18c0 -23 -9 -45 -24 -61s-34 -24 -54 -24s-39 8 -53 24c-16 16 -24 38 -24 61c0 6 -1 12 -4 18c-7 13 -20 22 -36 22s-29 -9 -36 -22c-2 -6 -4 -12 -4 -18c0 -91 71 -165 157 -165h1c70 0 129 49 149 115c5 16 8 33 8 50zM187 317c-13 0 -27 1 -40 5v-282
c0 -22 18 -40 40 -40s40 18 40 40v282c-12 -4 -26 -5 -40 -5z" />
    <glyph glyph-name="Yacute" unicode="&#xdd;" 
d="M147 738l91 33c3 1 6 3 9 5c18 12 23 37 10 56c-12 18 -38 23 -56 10l-79 -54c-10 -7 -15 -21 -10 -33c5 -14 21 -22 35 -17zM110 540v119c0 23 -18 40 -40 40s-40 -17 -40 -40v-119c10 10 24 16 40 16s30 -6 40 -16zM345 540v119c0 23 -18 40 -40 40s-40 -17 -40 -40
v-119c10 10 24 16 40 16c15 0 29 -6 40 -16zM345 499c0 6 -2 12 -4 18c-7 13 -21 22 -36 22c-16 0 -30 -9 -36 -22c-3 -6 -4 -12 -4 -18c0 -23 -9 -45 -24 -61s-34 -24 -54 -24s-39 8 -53 24c-16 16 -24 38 -24 61c0 6 -1 12 -4 18c-7 13 -20 22 -36 22s-29 -9 -36 -22
c-2 -6 -4 -12 -4 -18c0 -91 71 -165 157 -165h1c70 0 129 49 149 115c5 16 8 33 8 50zM187 317c-13 0 -27 1 -40 5v-282c0 -22 18 -40 40 -40s40 18 40 40v282c-12 -4 -26 -5 -40 -5z" />
    <glyph glyph-name="Ycircumflex" unicode="&#x176;" 
d="M298 739c8 12 5 30 -7 38l-79 55c-3 2 -6 3 -10 5c-5 1 -10 2 -14 2c-8 0 -17 -2 -24 -7l-79 -55c-10 -7 -15 -20 -10 -32c5 -14 21 -22 35 -17l78 31l77 -31c12 -5 25 0 33 11zM110 540v119c0 23 -18 40 -40 40s-40 -17 -40 -40v-119c10 10 24 16 40 16s30 -6 40 -16z
M345 540v119c0 23 -18 40 -40 40s-40 -17 -40 -40v-119c10 10 24 16 40 16c15 0 29 -6 40 -16zM345 499c0 6 -2 12 -4 18c-7 13 -21 22 -36 22c-16 0 -30 -9 -36 -22c-3 -6 -4 -12 -4 -18c0 -23 -9 -45 -24 -61s-34 -24 -54 -24s-39 8 -53 24c-16 16 -24 38 -24 61
c0 6 -1 12 -4 18c-7 13 -20 22 -36 22s-29 -9 -36 -22c-2 -6 -4 -12 -4 -18c0 -91 71 -165 157 -165h1c70 0 129 49 149 115c5 16 8 33 8 50zM187 317c-13 0 -27 1 -40 5v-282c0 -22 18 -40 40 -40s40 18 40 40v282c-12 -4 -26 -5 -40 -5z" />
    <glyph glyph-name="Ydieresis" unicode="&#x178;" 
d="M91 773c0 -22 18 -40 40 -40s40 18 40 40c0 23 -18 41 -40 41s-40 -18 -40 -41zM203 773c0 -22 18 -40 40 -40c23 0 41 18 41 40c0 23 -18 41 -41 41c-22 0 -40 -18 -40 -41zM110 540v119c0 23 -18 40 -40 40s-40 -17 -40 -40v-119c10 10 24 16 40 16s30 -6 40 -16z
M345 540v119c0 23 -18 40 -40 40s-40 -17 -40 -40v-119c10 10 24 16 40 16c15 0 29 -6 40 -16zM345 499c0 6 -2 12 -4 18c-7 13 -21 22 -36 22c-16 0 -30 -9 -36 -22c-3 -6 -4 -12 -4 -18c0 -23 -9 -45 -24 -61s-34 -24 -54 -24s-39 8 -53 24c-16 16 -24 38 -24 61
c0 6 -1 12 -4 18c-7 13 -20 22 -36 22s-29 -9 -36 -22c-2 -6 -4 -12 -4 -18c0 -91 71 -165 157 -165h1c70 0 129 49 149 115c5 16 8 33 8 50zM187 317c-13 0 -27 1 -40 5v-282c0 -22 18 -40 40 -40s40 18 40 40v282c-12 -4 -26 -5 -40 -5z" />
    <glyph glyph-name="Ygrave" unicode="&#x1ef2;" 
d="M136 771l91 -33c14 -5 30 3 35 17c5 12 0 26 -10 33l-79 54c-18 13 -44 8 -56 -10c-13 -19 -8 -44 10 -56c3 -2 6 -4 9 -5zM110 540v119c0 23 -18 40 -40 40s-40 -17 -40 -40v-119c10 10 24 16 40 16s30 -6 40 -16zM345 540v119c0 23 -18 40 -40 40s-40 -17 -40 -40v-119
c10 10 24 16 40 16c15 0 29 -6 40 -16zM345 499c0 6 -2 12 -4 18c-7 13 -21 22 -36 22c-16 0 -30 -9 -36 -22c-3 -6 -4 -12 -4 -18c0 -23 -9 -45 -24 -61s-34 -24 -54 -24s-39 8 -53 24c-16 16 -24 38 -24 61c0 6 -1 12 -4 18c-7 13 -20 22 -36 22s-29 -9 -36 -22
c-2 -6 -4 -12 -4 -18c0 -91 71 -165 157 -165h1c70 0 129 49 149 115c5 16 8 33 8 50zM187 317c-13 0 -27 1 -40 5v-282c0 -22 18 -40 40 -40s40 18 40 40v282c-12 -4 -26 -5 -40 -5z" />
    <glyph glyph-name="Z" unicode="Z" horiz-adv-x="403" 
d="M30 659c0 -22 18 -40 40 -40h203l-55 -129c6 2 13 4 21 4c7 0 15 -2 22 -5c14 -6 25 -17 30 -31l79 186c5 12 4 26 -3 37c-8 11 -20 18 -34 18h-263c-22 0 -40 -18 -40 -40zM70 0h263c22 0 40 18 40 40s-18 40 -40 40h-203l145 341c9 21 0 44 -21 53
c-20 8 -44 -1 -52 -21l-169 -397c-5 -13 -4 -27 4 -38c7 -11 20 -18 33 -18z" />
    <glyph glyph-name="a" unicode="a" 
d="M188 525c86 0 157 -74 157 -165v-154c-4 4 -8 7 -12 9c-8 5 -18 7 -28 7c-16 0 -30 -6 -40 -16c-4 -4 -7 -8 -10 -13c-4 7 -8 14 -14 20c-14 15 -33 24 -53 24s-40 -9 -54 -24c-6 -6 -10 -13 -14 -20c-10 18 -28 29 -50 29c-10 0 -19 -2 -28 -7c24 60 80 102 146 102
c28 0 54 -8 77 -22v65c0 23 -9 44 -24 61c-14 15 -33 24 -53 24c-23 0 -43 -7 -57 -19s-21 -29 -21 -50c0 -22 -18 -40 -40 -40s-40 18 -40 40c0 44 17 83 48 110c29 25 67 39 110 39zM305 205c22 0 40 -18 40 -40c0 -91 -71 -165 -158 -165c-86 0 -157 74 -157 165
c0 22 18 40 40 40s40 -18 40 -40c0 -23 8 -45 24 -61c14 -16 33 -24 53 -24s39 8 54 24s24 38 24 61c0 22 18 40 40 40z" />
    <glyph glyph-name="aacute" unicode="&#xe1;" 
d="M238 596l-91 -33c-14 -5 -30 3 -35 17c-5 12 0 26 10 33l79 54c18 13 44 8 56 -10c13 -19 8 -44 -10 -56c-3 -2 -6 -4 -9 -5zM188 525c86 0 157 -74 157 -165v-154c-4 4 -8 7 -12 9c-8 5 -18 7 -28 7c-16 0 -30 -6 -40 -16c-4 -4 -7 -8 -10 -13c-4 7 -8 14 -14 20
c-14 15 -33 24 -53 24s-40 -9 -54 -24c-6 -6 -10 -13 -14 -20c-10 18 -28 29 -50 29c-10 0 -19 -2 -28 -7c24 60 80 102 146 102c28 0 54 -8 77 -22v65c0 23 -9 44 -24 61c-14 15 -33 24 -53 24c-23 0 -43 -7 -57 -19s-21 -29 -21 -50c0 -22 -18 -40 -40 -40s-40 18 -40 40
c0 44 17 83 48 110c29 25 67 39 110 39zM305 205c22 0 40 -18 40 -40c0 -91 -71 -165 -158 -165c-86 0 -157 74 -157 165c0 22 18 40 40 40s40 -18 40 -40c0 -23 8 -45 24 -61c14 -16 33 -24 53 -24s39 8 54 24s24 38 24 61c0 22 18 40 40 40z" />
    <glyph glyph-name="acircumflex" unicode="&#xe2;" 
d="M188 596l-78 -31c-14 -5 -30 3 -35 17c-5 12 0 25 10 32l79 55c7 5 16 7 24 7c4 0 9 -1 14 -2c4 -2 7 -3 10 -5l79 -55c12 -8 15 -26 7 -38c-8 -11 -21 -16 -33 -11zM188 525c86 0 157 -74 157 -165v-154c-4 4 -8 7 -12 9c-8 5 -18 7 -28 7c-16 0 -30 -6 -40 -16
c-4 -4 -7 -8 -10 -13c-4 7 -8 14 -14 20c-14 15 -33 24 -53 24s-40 -9 -54 -24c-6 -6 -10 -13 -14 -20c-10 18 -28 29 -50 29c-10 0 -19 -2 -28 -7c24 60 80 102 146 102c28 0 54 -8 77 -22v65c0 23 -9 44 -24 61c-14 15 -33 24 -53 24c-23 0 -43 -7 -57 -19
s-21 -29 -21 -50c0 -22 -18 -40 -40 -40s-40 18 -40 40c0 44 17 83 48 110c29 25 67 39 110 39zM305 205c22 0 40 -18 40 -40c0 -91 -71 -165 -158 -165c-86 0 -157 74 -157 165c0 22 18 40 40 40s40 -18 40 -40c0 -23 8 -45 24 -61c14 -16 33 -24 53 -24s39 8 54 24
s24 38 24 61c0 22 18 40 40 40z" />
    <glyph glyph-name="adieresis" unicode="&#xe4;" 
d="M131 569c-22 0 -40 18 -40 40c0 23 18 41 40 41s40 -18 40 -41c0 -22 -18 -40 -40 -40zM243 569c-22 0 -40 18 -40 40c0 23 18 41 40 41c23 0 41 -18 41 -41c0 -22 -18 -40 -41 -40zM188 525c86 0 157 -74 157 -165v-154c-4 4 -8 7 -12 9c-8 5 -18 7 -28 7
c-16 0 -30 -6 -40 -16c-4 -4 -7 -8 -10 -13c-4 7 -8 14 -14 20c-14 15 -33 24 -53 24s-40 -9 -54 -24c-6 -6 -10 -13 -14 -20c-10 18 -28 29 -50 29c-10 0 -19 -2 -28 -7c24 60 80 102 146 102c28 0 54 -8 77 -22v65c0 23 -9 44 -24 61c-14 15 -33 24 -53 24
c-23 0 -43 -7 -57 -19s-21 -29 -21 -50c0 -22 -18 -40 -40 -40s-40 18 -40 40c0 44 17 83 48 110c29 25 67 39 110 39zM305 205c22 0 40 -18 40 -40c0 -91 -71 -165 -158 -165c-86 0 -157 74 -157 165c0 22 18 40 40 40s40 -18 40 -40c0 -23 8 -45 24 -61
c14 -16 33 -24 53 -24s39 8 54 24s24 38 24 61c0 22 18 40 40 40z" />
    <glyph glyph-name="agrave" unicode="&#xe0;" 
d="M127 601c-18 12 -23 37 -10 56c12 18 38 23 56 10l79 -54c10 -7 15 -21 10 -33c-5 -14 -21 -22 -35 -17l-91 33c-3 1 -6 3 -9 5zM188 525c86 0 157 -74 157 -165v-154c-4 4 -8 7 -12 9c-8 5 -18 7 -28 7c-16 0 -30 -6 -40 -16c-4 -4 -7 -8 -10 -13c-4 7 -8 14 -14 20
c-14 15 -33 24 -53 24s-40 -9 -54 -24c-6 -6 -10 -13 -14 -20c-10 18 -28 29 -50 29c-10 0 -19 -2 -28 -7c24 60 80 102 146 102c28 0 54 -8 77 -22v65c0 23 -9 44 -24 61c-14 15 -33 24 -53 24c-23 0 -43 -7 -57 -19s-21 -29 -21 -50c0 -22 -18 -40 -40 -40s-40 18 -40 40
c0 44 17 83 48 110c29 25 67 39 110 39zM305 205c22 0 40 -18 40 -40c0 -91 -71 -165 -158 -165c-86 0 -157 74 -157 165c0 22 18 40 40 40s40 -18 40 -40c0 -23 8 -45 24 -61c14 -16 33 -24 53 -24s39 8 54 24s24 38 24 61c0 22 18 40 40 40z" />
    <glyph glyph-name="atilde" unicode="&#xe3;" 
d="M156 603l-71 -27c-12 -3 -25 5 -28 17c-2 10 2 19 10 25l73 53c9 6 21 5 29 0l59 -35l56 24c13 5 28 0 33 -12s1 -25 -9 -32l-68 -44c-7 -4 -16 -6 -23 -2zM188 525c86 0 157 -74 157 -165v-154c-4 4 -8 7 -12 9c-8 5 -18 7 -28 7c-16 0 -30 -6 -40 -16
c-4 -4 -7 -8 -10 -13c-4 7 -8 14 -14 20c-14 15 -33 24 -53 24s-40 -9 -54 -24c-6 -6 -10 -13 -14 -20c-10 18 -28 29 -50 29c-10 0 -19 -2 -28 -7c24 60 80 102 146 102c28 0 54 -8 77 -22v65c0 23 -9 44 -24 61c-14 15 -33 24 -53 24c-23 0 -43 -7 -57 -19
s-21 -29 -21 -50c0 -22 -18 -40 -40 -40s-40 18 -40 40c0 44 17 83 48 110c29 25 67 39 110 39zM305 205c22 0 40 -18 40 -40c0 -91 -71 -165 -158 -165c-86 0 -157 74 -157 165c0 22 18 40 40 40s40 -18 40 -40c0 -23 8 -45 24 -61c14 -16 33 -24 53 -24s39 8 54 24
s24 38 24 61c0 22 18 40 40 40z" />
    <glyph glyph-name="ae" unicode="&#xe6;" horiz-adv-x="750" 
d="M188 525c86 0 157 -74 157 -165v-154c-4 4 -8 7 -12 9c-8 5 -18 7 -28 7c-16 0 -30 -6 -40 -16c-4 -4 -7 -8 -10 -13c-4 7 -8 14 -14 20c-14 15 -33 24 -53 24s-40 -9 -54 -24c-6 -6 -10 -13 -14 -20c-10 18 -28 29 -50 29c-10 0 -19 -2 -28 -7c24 60 80 102 146 102
c28 0 54 -8 77 -22v65c0 23 -9 44 -24 61c-14 15 -33 24 -53 24c-23 0 -43 -7 -57 -19s-21 -29 -21 -50c0 -22 -18 -40 -40 -40s-40 18 -40 40c0 44 17 83 48 110c29 25 67 39 110 39zM718 386l2 -20v-6c0 -5 -1 -9 -2 -13c-5 -16 -21 -27 -38 -27c-22 0 -40 18 -40 40
c0 2 0 4 -1 6c-1 21 -9 40 -23 55c-15 15 -34 24 -54 24s-39 -9 -53 -24s-22 -34 -24 -55v-6c0 -22 -18 -40 -40 -40c-18 0 -33 11 -38 27c-1 4 -2 8 -2 13v6c0 7 1 13 2 20c12 78 77 139 155 139c79 0 144 -61 156 -139zM680 189c22 0 40 -18 40 -40
c0 -44 -17 -83 -48 -110c-29 -25 -68 -39 -110 -39c-86 0 -157 74 -157 165v154c4 -3 8 -7 12 -9c8 -5 18 -7 28 -7c16 0 30 6 40 16c4 4 7 8 10 13c3 -7 8 -14 14 -20c14 -15 33 -24 53 -24s39 9 54 24c6 6 10 13 14 20c10 -18 28 -29 50 -29c10 0 19 2 28 7
c-24 -60 -80 -102 -146 -102c-28 0 -54 8 -77 21v-64c0 -23 8 -45 24 -61c14 -15 33 -24 53 -24c23 0 43 7 57 19s21 29 21 50c0 22 18 40 40 40zM305 205c22 0 40 -18 40 -40c0 -91 -71 -165 -158 -165c-86 0 -157 74 -157 165c0 22 18 40 40 40s40 -18 40 -40
c0 -23 8 -45 24 -61c14 -16 33 -24 53 -24s39 8 54 24s24 38 24 61c0 22 18 40 40 40z" />
    <glyph glyph-name="b" unicode="b" 
d="M110 520v138c0 22 -18 40 -40 40s-40 -18 -40 -40v-223c17 37 45 67 80 85zM30 357c0 -7 2 -13 4 -18c7 -13 20 -22 36 -22s29 9 36 22c3 5 4 11 4 18c0 23 8 44 24 61c14 15 33 24 53 24s39 -9 54 -24c15 -17 24 -38 24 -61c0 -7 1 -13 4 -18c6 -13 20 -22 36 -22
c15 0 29 9 36 22c2 5 4 11 4 18c0 91 -71 165 -158 165h-1c-69 -1 -129 -49 -149 -116c-4 -15 -7 -32 -7 -49zM345 165v151c-11 -10 -25 -17 -40 -17c-16 0 -30 7 -40 17v-151c0 -23 -9 -45 -24 -61c-15 -15 -34 -24 -54 -24s-39 9 -53 24c-16 16 -24 38 -24 61v151
c-10 -10 -24 -17 -40 -17s-30 7 -40 17v-151c0 -91 71 -165 157 -165c87 0 158 74 158 165z" />
    <glyph glyph-name="c" unicode="c" 
d="M345 356c0 91 -71 165 -157 165c-87 0 -158 -74 -158 -165v-153c11 11 25 17 40 17c16 0 30 -6 40 -17v153c0 23 9 45 24 61c14 16 34 24 54 24s39 -8 53 -24c15 -16 24 -38 24 -61c0 -22 18 -40 40 -40s40 18 40 40zM187 0c87 0 158 74 158 165c0 22 -18 40 -40 40
s-40 -18 -40 -40c0 -23 -9 -45 -24 -61s-34 -24 -54 -24s-39 8 -53 24c-16 16 -24 38 -24 61c0 22 -18 40 -40 40s-40 -18 -40 -40c0 -91 71 -165 157 -165z" />
    <glyph glyph-name="ccedilla" unicode="&#xe7;" 
d="M110 356v-153c-10 11 -24 17 -40 17c-15 0 -29 -6 -40 -17v153c0 91 71 165 158 165c86 0 157 -74 157 -165c0 -22 -18 -40 -40 -40s-40 18 -40 40c0 23 -9 45 -24 61c-14 16 -33 24 -53 24s-40 -8 -54 -24c-15 -16 -24 -38 -24 -61zM305 205c22 0 40 -18 40 -40
c0 -68 -40 -127 -97 -152l-50 -51l-4 3c-17 8 -34 11 -45 13l23 23c-79 8 -142 78 -142 164c0 22 18 40 40 40s40 -18 40 -40c0 -23 8 -45 24 -61c14 -16 33 -24 53 -24s39 8 54 24s24 38 24 61c0 22 18 40 40 40zM136 -38c56 0 102 -44 102 -97c0 -54 -46 -97 -102 -97
c-15 0 -28 12 -28 28c0 15 13 28 28 28c26 0 46 18 46 41c0 22 -20 41 -46 41c-15 0 -28 12 -28 28c0 15 13 28 28 28z" />
    <glyph glyph-name="d" unicode="d" 
d="M345 437v221c0 22 -18 40 -40 40s-40 -18 -40 -40v-136c35 -18 63 -48 80 -85zM30 359c0 -7 2 -13 4 -18c7 -13 20 -22 36 -22s29 9 36 22c3 5 4 11 4 18c0 23 8 44 24 61c14 15 33 24 53 24s39 -9 54 -24c15 -17 24 -38 24 -61c0 -7 1 -13 4 -18c6 -13 20 -22 36 -22
c15 0 29 9 36 22c2 5 4 11 4 18c0 91 -71 165 -158 165h-1c-69 -1 -129 -49 -149 -116c-4 -16 -7 -32 -7 -49zM305 302c-16 0 -30 6 -40 16v-153c0 -23 -9 -45 -24 -61c-15 -15 -34 -24 -54 -24s-39 9 -53 24c-16 16 -24 38 -24 61v153c-10 -10 -24 -16 -40 -16
s-30 6 -40 16v-153c0 -91 71 -165 157 -165c87 0 158 74 158 165v153c-11 -10 -25 -16 -40 -16z" />
    <glyph glyph-name="e" unicode="e" 
d="M345 360v6c-1 7 -1 13 -2 20c-12 78 -77 139 -156 139c-78 0 -143 -61 -155 -139c-1 -7 -2 -13 -2 -20v-6c0 -5 1 -9 2 -13c5 -16 20 -27 38 -27c22 0 40 18 40 40v6c2 21 10 40 24 55s33 24 53 24s39 -9 54 -24c14 -15 22 -34 23 -55c1 -2 1 -4 1 -6
c0 -22 18 -40 40 -40c17 0 33 11 38 27c1 4 2 8 2 13zM345 149c0 22 -18 40 -40 40s-40 -18 -40 -40c0 -21 -7 -38 -21 -50s-34 -19 -57 -19c-20 0 -39 9 -53 24c-16 16 -24 38 -24 61v64c23 -13 49 -21 77 -21c66 0 122 42 146 102c-9 -5 -18 -7 -28 -7
c-22 0 -40 11 -50 29c-4 -7 -8 -14 -14 -20c-15 -15 -34 -24 -54 -24s-39 9 -53 24c-6 6 -11 13 -14 20c-3 -5 -6 -9 -10 -13c-10 -10 -24 -16 -40 -16c-10 0 -20 2 -28 7c-4 2 -8 6 -12 9v-154c0 -91 71 -165 157 -165c42 0 81 14 110 39c31 27 48 66 48 110z" />
    <glyph glyph-name="eacute" unicode="&#xe9;" 
d="M147 563l91 33c3 1 6 3 9 5c18 12 23 37 10 56c-12 18 -38 23 -56 10l-79 -54c-10 -7 -15 -21 -10 -33c5 -14 21 -22 35 -17zM345 360v6c-1 7 -1 13 -2 20c-12 78 -77 139 -156 139c-78 0 -143 -61 -155 -139c-1 -7 -2 -13 -2 -20v-6c0 -5 1 -9 2 -13
c5 -16 20 -27 38 -27c22 0 40 18 40 40v6c2 21 10 40 24 55s33 24 53 24s39 -9 54 -24c14 -15 22 -34 23 -55c1 -2 1 -4 1 -6c0 -22 18 -40 40 -40c17 0 33 11 38 27c1 4 2 8 2 13zM345 149c0 22 -18 40 -40 40s-40 -18 -40 -40c0 -21 -7 -38 -21 -50s-34 -19 -57 -19
c-20 0 -39 9 -53 24c-16 16 -24 38 -24 61v64c23 -13 49 -21 77 -21c66 0 122 42 146 102c-9 -5 -18 -7 -28 -7c-22 0 -40 11 -50 29c-4 -7 -8 -14 -14 -20c-15 -15 -34 -24 -54 -24s-39 9 -53 24c-6 6 -11 13 -14 20c-3 -5 -6 -9 -10 -13c-10 -10 -24 -16 -40 -16
c-10 0 -20 2 -28 7c-4 2 -8 6 -12 9v-154c0 -91 71 -165 157 -165c42 0 81 14 110 39c31 27 48 66 48 110z" />
    <glyph glyph-name="ecircumflex" unicode="&#xea;" 
d="M298 576c8 12 5 30 -7 38l-79 55c-3 2 -6 3 -10 5c-5 1 -10 2 -14 2c-8 0 -17 -2 -24 -7l-79 -55c-10 -7 -15 -20 -10 -32c5 -14 21 -22 35 -17l78 31l77 -31c12 -5 25 0 33 11zM345 360v6c-1 7 -1 13 -2 20c-12 78 -77 139 -156 139c-78 0 -143 -61 -155 -139
c-1 -7 -2 -13 -2 -20v-6c0 -5 1 -9 2 -13c5 -16 20 -27 38 -27c22 0 40 18 40 40v6c2 21 10 40 24 55s33 24 53 24s39 -9 54 -24c14 -15 22 -34 23 -55c1 -2 1 -4 1 -6c0 -22 18 -40 40 -40c17 0 33 11 38 27c1 4 2 8 2 13zM345 149c0 22 -18 40 -40 40s-40 -18 -40 -40
c0 -21 -7 -38 -21 -50s-34 -19 -57 -19c-20 0 -39 9 -53 24c-16 16 -24 38 -24 61v64c23 -13 49 -21 77 -21c66 0 122 42 146 102c-9 -5 -18 -7 -28 -7c-22 0 -40 11 -50 29c-4 -7 -8 -14 -14 -20c-15 -15 -34 -24 -54 -24s-39 9 -53 24c-6 6 -11 13 -14 20
c-3 -5 -6 -9 -10 -13c-10 -10 -24 -16 -40 -16c-10 0 -20 2 -28 7c-4 2 -8 6 -12 9v-154c0 -91 71 -165 157 -165c42 0 81 14 110 39c31 27 48 66 48 110z" />
    <glyph glyph-name="edieresis" unicode="&#xeb;" 
d="M91 609c0 -22 18 -40 40 -40s40 18 40 40c0 23 -18 41 -40 41s-40 -18 -40 -41zM203 609c0 -22 18 -40 40 -40c23 0 41 18 41 40c0 23 -18 41 -41 41c-22 0 -40 -18 -40 -41zM345 360v6c-1 7 -1 13 -2 20c-12 78 -77 139 -156 139c-78 0 -143 -61 -155 -139
c-1 -7 -2 -13 -2 -20v-6c0 -5 1 -9 2 -13c5 -16 20 -27 38 -27c22 0 40 18 40 40v6c2 21 10 40 24 55s33 24 53 24s39 -9 54 -24c14 -15 22 -34 23 -55c1 -2 1 -4 1 -6c0 -22 18 -40 40 -40c17 0 33 11 38 27c1 4 2 8 2 13zM345 149c0 22 -18 40 -40 40s-40 -18 -40 -40
c0 -21 -7 -38 -21 -50s-34 -19 -57 -19c-20 0 -39 9 -53 24c-16 16 -24 38 -24 61v64c23 -13 49 -21 77 -21c66 0 122 42 146 102c-9 -5 -18 -7 -28 -7c-22 0 -40 11 -50 29c-4 -7 -8 -14 -14 -20c-15 -15 -34 -24 -54 -24s-39 9 -53 24c-6 6 -11 13 -14 20
c-3 -5 -6 -9 -10 -13c-10 -10 -24 -16 -40 -16c-10 0 -20 2 -28 7c-4 2 -8 6 -12 9v-154c0 -91 71 -165 157 -165c42 0 81 14 110 39c31 27 48 66 48 110z" />
    <glyph glyph-name="egrave" unicode="&#xe8;" 
d="M136 596l91 -33c14 -5 30 3 35 17c5 12 0 26 -10 33l-79 54c-18 13 -44 8 -56 -10c-13 -19 -8 -44 10 -56c3 -2 6 -4 9 -5zM345 360v6c-1 7 -1 13 -2 20c-12 78 -77 139 -156 139c-78 0 -143 -61 -155 -139c-1 -7 -2 -13 -2 -20v-6c0 -5 1 -9 2 -13c5 -16 20 -27 38 -27
c22 0 40 18 40 40v6c2 21 10 40 24 55s33 24 53 24s39 -9 54 -24c14 -15 22 -34 23 -55c1 -2 1 -4 1 -6c0 -22 18 -40 40 -40c17 0 33 11 38 27c1 4 2 8 2 13zM345 149c0 22 -18 40 -40 40s-40 -18 -40 -40c0 -21 -7 -38 -21 -50s-34 -19 -57 -19c-20 0 -39 9 -53 24
c-16 16 -24 38 -24 61v64c23 -13 49 -21 77 -21c66 0 122 42 146 102c-9 -5 -18 -7 -28 -7c-22 0 -40 11 -50 29c-4 -7 -8 -14 -14 -20c-15 -15 -34 -24 -54 -24s-39 9 -53 24c-6 6 -11 13 -14 20c-3 -5 -6 -9 -10 -13c-10 -10 -24 -16 -40 -16c-10 0 -20 2 -28 7
c-4 2 -8 6 -12 9v-154c0 -91 71 -165 157 -165c42 0 81 14 110 39c31 27 48 66 48 110z" />
    <glyph glyph-name="f" unicode="f" horiz-adv-x="346" 
d="M307 641c14 -17 12 -42 -6 -56c-17 -14 -42 -12 -56 5c-15 19 -36 29 -58 29c-20 0 -39 -8 -53 -24c-15 -16 -24 -38 -24 -61c0 -22 -18 -40 -40 -40s-40 18 -40 40c0 91 71 165 157 165c47 0 90 -21 120 -58zM110 389h77c22 0 40 -18 40 -40c0 -23 -18 -40 -40 -40h-77
v-269c0 -22 -18 -40 -40 -40s-40 18 -40 40v453c11 -10 25 -16 40 -16c16 0 30 6 40 17v-105z" />
    <glyph glyph-name="g" unicode="g" 
d="M345 206v154c0 91 -71 165 -158 165c-86 0 -157 -74 -157 -165v-154c10 10 24 16 40 16s30 -6 40 -16v154c0 23 8 45 24 61c14 15 33 24 53 24s39 -9 54 -24c15 -16 24 -38 24 -61v-154c10 10 24 16 40 16c15 0 29 -6 40 -16zM187 0c87 0 158 74 158 165
c0 22 -18 40 -40 40s-40 -18 -40 -40c0 -23 -9 -45 -24 -61s-34 -24 -54 -24s-39 8 -53 24c-16 16 -24 38 -24 61c0 22 -18 40 -40 40s-40 -18 -40 -40c0 -91 71 -165 157 -165zM345 -44v131c-17 -37 -45 -67 -80 -85v-46c0 -23 -9 -44 -24 -61c-15 -15 -34 -24 -54 -24
c-22 0 -42 7 -56 19s-21 29 -21 50c0 23 -18 40 -40 40s-40 -17 -40 -40c0 -44 17 -83 48 -110c28 -25 67 -39 109 -39c87 0 158 74 158 165z" />
    <glyph glyph-name="h" unicode="h" 
d="M110 522v136c0 22 -18 40 -40 40s-40 -18 -40 -40v-221c17 37 45 67 80 85zM345 356v3c0 91 -71 165 -158 165c-28 0 -54 -8 -77 -21c-48 -29 -80 -83 -80 -144c0 -22 18 -40 40 -40s40 18 40 40c0 23 8 45 24 61c14 15 33 24 53 24s39 -9 54 -24c15 -16 24 -38 24 -61
v-3c1 -21 18 -37 40 -37c21 0 38 16 40 37zM70 302c-16 0 -30 6 -40 16v-278c0 -22 18 -40 40 -40s40 18 40 40v278c-10 -10 -24 -16 -40 -16zM345 40v278c-11 -10 -25 -16 -40 -16c-16 0 -30 6 -40 16v-278c0 -22 18 -40 40 -40s40 18 40 40z" />
    <glyph glyph-name="i" unicode="i" horiz-adv-x="140" 
d="M110 620c0 22 -18 40 -40 40s-40 -18 -40 -40c0 -23 18 -41 40 -41s40 18 40 41zM110 358v127c0 22 -18 40 -40 40s-40 -18 -40 -40v-127c10 10 25 16 40 16c16 0 30 -6 40 -16zM110 317v4c-2 20 -19 36 -40 36s-38 -16 -40 -36v-4v-277c0 -22 18 -40 40 -40s40 18 40 40
v277z" />
    <glyph glyph-name="iacute" unicode="&#xed;" horiz-adv-x="140" 
d="M29 563l91 33c3 1 6 3 9 5c18 12 23 37 10 56c-12 18 -38 23 -56 10l-79 -54c-10 -7 -15 -21 -10 -33c5 -14 21 -22 35 -17zM110 358v127c0 22 -18 40 -40 40s-40 -18 -40 -40v-127c10 10 25 16 40 16c16 0 30 -6 40 -16zM110 317v4c-2 20 -19 36 -40 36s-38 -16 -40 -36
v-4v-277c0 -22 18 -40 40 -40s40 18 40 40v277z" />
    <glyph glyph-name="icircumflex" unicode="&#xee;" horiz-adv-x="140" 
d="M181 576c8 12 5 30 -7 38l-79 55c-3 2 -6 3 -10 5c-5 1 -10 2 -14 2c-8 0 -17 -2 -24 -7l-79 -55c-10 -7 -15 -20 -10 -32c5 -14 21 -22 35 -17l78 31l77 -31c12 -5 25 0 33 11zM110 358v127c0 22 -18 40 -40 40s-40 -18 -40 -40v-127c10 10 25 16 40 16
c16 0 30 -6 40 -16zM110 317v4c-2 20 -19 36 -40 36s-38 -16 -40 -36v-4v-277c0 -22 18 -40 40 -40s40 18 40 40v277z" />
    <glyph glyph-name="idieresis" unicode="&#xef;" horiz-adv-x="140" 
d="M-26 609c0 -22 18 -40 40 -40s40 18 40 40c0 23 -18 41 -40 41s-40 -18 -40 -41zM86 609c0 -22 18 -40 40 -40c23 0 41 18 41 40c0 23 -18 41 -41 41c-22 0 -40 -18 -40 -41zM110 358v127c0 22 -18 40 -40 40s-40 -18 -40 -40v-127c10 10 25 16 40 16c16 0 30 -6 40 -16z
M110 317v4c-2 20 -19 36 -40 36s-38 -16 -40 -36v-4v-277c0 -22 18 -40 40 -40s40 18 40 40v277z" />
    <glyph glyph-name="igrave" unicode="&#xec;" horiz-adv-x="140" 
d="M18 596l91 -33c14 -5 30 3 35 17c5 12 0 26 -10 33l-79 54c-18 13 -44 8 -56 -10c-13 -19 -8 -44 10 -56c3 -2 6 -4 9 -5zM110 358v127c0 22 -18 40 -40 40s-40 -18 -40 -40v-127c10 10 25 16 40 16c16 0 30 -6 40 -16zM110 317v4c-2 20 -19 36 -40 36s-38 -16 -40 -36
v-4v-277c0 -22 18 -40 40 -40s40 18 40 40v277z" />
    <glyph glyph-name="ij" unicode="&#x133;" horiz-adv-x="476" 
d="M110 620c0 22 -18 40 -40 40s-40 -18 -40 -40c0 -23 18 -41 40 -41s40 18 40 41zM447 619c0 22 -18 40 -40 40s-40 -18 -40 -40s18 -40 40 -40s40 18 40 40zM110 358v127c0 22 -18 40 -40 40s-40 -18 -40 -40v-127c10 10 25 16 40 16c16 0 30 -6 40 -16zM446 206l1 279
c0 22 -18 40 -40 40s-40 -18 -40 -40l-1 -279c10 10 24 16 40 16c15 0 30 -6 40 -16zM110 317v4c-2 20 -19 36 -40 36s-38 -16 -40 -36v-4v-277c0 -22 18 -40 40 -40s40 18 40 40v277zM406 205c-22 0 -40 -18 -40 -40c0 -23 -9 -45 -24 -61c-14 -16 -33 -24 -53 -24
c-22 0 -43 10 -58 29c-14 17 -39 19 -56 5c-18 -14 -20 -39 -6 -56c30 -37 73 -58 120 -58c86 0 157 74 157 165c0 22 -18 40 -40 40z" />
    <glyph glyph-name="j" unicode="j" horiz-adv-x="336" 
d="M307 619c0 22 -18 40 -40 40s-40 -18 -40 -40s18 -40 40 -40s40 18 40 40zM306 206l1 279c0 22 -18 40 -40 40s-40 -18 -40 -40l-1 -279c10 10 24 16 40 16c15 0 30 -6 40 -16zM266 205c-22 0 -40 -18 -40 -40c0 -23 -9 -45 -24 -61c-14 -16 -33 -24 -53 -24
c-22 0 -43 10 -58 29c-14 17 -39 19 -56 5c-18 -14 -20 -39 -6 -56c30 -37 73 -58 120 -58c86 0 157 74 157 165c0 22 -18 40 -40 40z" />
    <glyph glyph-name="k" unicode="k" 
d="M110 658v-135c-10 10 -24 16 -40 16c-15 0 -30 -6 -40 -16v135c0 22 18 40 40 40s40 -18 40 -40zM305 522c21 0 39 -17 40 -38v-2c0 -47 -19 -90 -49 -120c-21 -21 -48 -36 -77 -42c-10 -2 -21 -3 -32 -3c-10 0 -21 1 -31 3c-17 4 -32 10 -46 18c-11 7 -22 15 -31 24
c-30 30 -49 73 -49 120c0 22 18 40 40 40s40 -18 40 -40c0 -23 9 -45 24 -61c6 -7 14 -13 22 -17c10 -5 20 -7 31 -7c12 0 22 2 32 7c8 4 16 10 22 17c15 16 24 38 24 61v2c1 21 18 38 40 38zM68 350c12 -13 27 -23 42 -31c9 -5 18 -9 27 -12l-3 -3c-15 -16 -23 -35 -24 -57
v-207c0 -22 -18 -40 -40 -40s-40 18 -40 40v363c9 -20 22 -38 38 -53zM237 307c27 9 51 23 70 43c24 -29 38 -67 38 -107v-203c0 -22 -18 -40 -40 -40s-40 18 -40 40v203c0 23 -9 44 -24 61c-1 1 -2 2 -4 3z" />
    <glyph glyph-name="l" unicode="l" horiz-adv-x="331" 
d="M110 206v452c0 22 -18 40 -40 40s-40 -18 -40 -40v-452c10 10 25 16 40 16c16 0 30 -6 40 -16zM70 205c-22 0 -40 -18 -40 -40c0 -91 71 -165 157 -165c47 0 90 21 120 58c14 17 12 42 -6 56c-17 14 -42 12 -56 -5c-15 -19 -36 -29 -58 -29c-20 0 -39 8 -53 24
c-15 16 -24 38 -24 61c0 22 -18 40 -40 40z" />
    <glyph glyph-name="m" unicode="m" horiz-adv-x="610" 
d="M580 40v320c0 91 -71 165 -158 165c-41 0 -78 -16 -106 -43c19 -22 33 -48 40 -77c4 6 8 11 13 16c14 16 33 24 53 24s39 -8 54 -24s24 -38 24 -61v-320c0 -22 17 -40 40 -40c22 0 40 18 40 40zM345 359v5c-1 41 -16 77 -40 106c-29 33 -71 54 -117 54
c-87 0 -158 -74 -158 -165v-4c2 -20 19 -36 40 -36s38 16 40 36v4c0 47 35 85 78 85c42 0 77 -38 77 -85v-4c2 -20 19 -36 40 -36s38 16 40 36v4zM70 302c-15 0 -29 6 -40 16v-278c0 -22 18 -40 40 -40s40 18 40 40v278c-10 -10 -24 -16 -40 -16zM345 40v278
c-10 -10 -25 -16 -40 -16c-16 0 -30 6 -40 16v-278c0 -22 18 -40 40 -40s40 18 40 40z" />
    <glyph glyph-name="n" unicode="n" 
d="M345 356v3c0 91 -71 165 -158 165c-86 0 -157 -74 -157 -165c0 -22 18 -40 40 -40s40 18 40 40c0 23 8 45 24 61c14 15 33 24 53 24s39 -9 54 -24c15 -16 24 -38 24 -61v-3c1 -21 18 -37 40 -37c21 0 38 16 40 37zM70 302c-16 0 -30 6 -40 16v-278c0 -22 18 -40 40 -40
s40 18 40 40v278c-10 -10 -24 -16 -40 -16zM345 40v278c-11 -10 -25 -16 -40 -16c-16 0 -30 6 -40 16v-278c0 -22 18 -40 40 -40s40 18 40 40z" />
    <glyph glyph-name="ntilde" unicode="&#xf1;" 
d="M228 636l-59 35c-8 5 -20 6 -29 0l-73 -53c-8 -6 -12 -15 -10 -25c3 -12 16 -20 28 -17l71 27l61 -33c7 -4 16 -2 23 2l68 44c10 7 14 20 9 32s-20 17 -33 12zM345 356v3c0 91 -71 165 -158 165c-86 0 -157 -74 -157 -165c0 -22 18 -40 40 -40s40 18 40 40
c0 23 8 45 24 61c14 15 33 24 53 24s39 -9 54 -24c15 -16 24 -38 24 -61v-3c1 -21 18 -37 40 -37c21 0 38 16 40 37zM70 302c-16 0 -30 6 -40 16v-278c0 -22 18 -40 40 -40s40 18 40 40v278c-10 -10 -24 -16 -40 -16zM345 40v278c-11 -10 -25 -16 -40 -16
c-16 0 -30 6 -40 16v-278c0 -22 18 -40 40 -40s40 18 40 40z" />
    <glyph glyph-name="o" unicode="o" 
d="M187 525c87 0 158 -74 158 -165v-154c-11 10 -25 16 -40 16c-16 0 -30 -6 -40 -16v154c0 23 -9 45 -24 61s-34 24 -54 24s-39 -8 -53 -24c-16 -16 -24 -38 -24 -61v-154c-10 10 -24 16 -40 16s-30 -6 -40 -16v154c0 91 71 165 157 165zM305 205c15 0 29 -9 36 -22
c2 -5 4 -11 4 -18c0 -17 -3 -34 -8 -49c-20 -67 -79 -116 -149 -116h-1c-86 0 -157 74 -157 165c0 7 2 13 4 18c7 13 20 22 36 22s29 -9 36 -22c3 -5 4 -11 4 -18c0 -23 8 -45 24 -61c14 -15 33 -24 53 -24s39 9 54 24c15 16 24 38 24 61c0 7 1 13 4 18c6 13 20 22 36 22z
" />
    <glyph glyph-name="oacute" unicode="&#xf3;" 
d="M238 596l-91 -33c-14 -5 -30 3 -35 17c-5 12 0 26 10 33l79 54c18 13 44 8 56 -10c13 -19 8 -44 -10 -56c-3 -2 -6 -4 -9 -5zM187 525c87 0 158 -74 158 -165v-154c-11 10 -25 16 -40 16c-16 0 -30 -6 -40 -16v154c0 23 -9 45 -24 61s-34 24 -54 24s-39 -8 -53 -24
c-16 -16 -24 -38 -24 -61v-154c-10 10 -24 16 -40 16s-30 -6 -40 -16v154c0 91 71 165 157 165zM305 205c15 0 29 -9 36 -22c2 -5 4 -11 4 -18c0 -17 -3 -34 -8 -49c-20 -67 -79 -116 -149 -116h-1c-86 0 -157 74 -157 165c0 7 2 13 4 18c7 13 20 22 36 22s29 -9 36 -22
c3 -5 4 -11 4 -18c0 -23 8 -45 24 -61c14 -15 33 -24 53 -24s39 9 54 24c15 16 24 38 24 61c0 7 1 13 4 18c6 13 20 22 36 22z" />
    <glyph glyph-name="ocircumflex" unicode="&#xf4;" 
d="M188 596l-78 -31c-14 -5 -30 3 -35 17c-5 12 0 25 10 32l79 55c7 5 16 7 24 7c4 0 9 -1 14 -2c4 -2 7 -3 10 -5l79 -55c12 -8 15 -26 7 -38c-8 -11 -21 -16 -33 -11zM187 525c87 0 158 -74 158 -165v-154c-11 10 -25 16 -40 16c-16 0 -30 -6 -40 -16v154
c0 23 -9 45 -24 61s-34 24 -54 24s-39 -8 -53 -24c-16 -16 -24 -38 -24 -61v-154c-10 10 -24 16 -40 16s-30 -6 -40 -16v154c0 91 71 165 157 165zM305 205c15 0 29 -9 36 -22c2 -5 4 -11 4 -18c0 -17 -3 -34 -8 -49c-20 -67 -79 -116 -149 -116h-1c-86 0 -157 74 -157 165
c0 7 2 13 4 18c7 13 20 22 36 22s29 -9 36 -22c3 -5 4 -11 4 -18c0 -23 8 -45 24 -61c14 -15 33 -24 53 -24s39 9 54 24c15 16 24 38 24 61c0 7 1 13 4 18c6 13 20 22 36 22z" />
    <glyph glyph-name="odieresis" unicode="&#xf6;" 
d="M131 569c-22 0 -40 18 -40 40c0 23 18 41 40 41s40 -18 40 -41c0 -22 -18 -40 -40 -40zM243 569c-22 0 -40 18 -40 40c0 23 18 41 40 41c23 0 41 -18 41 -41c0 -22 -18 -40 -41 -40zM187 525c87 0 158 -74 158 -165v-154c-11 10 -25 16 -40 16c-16 0 -30 -6 -40 -16v154
c0 23 -9 45 -24 61s-34 24 -54 24s-39 -8 -53 -24c-16 -16 -24 -38 -24 -61v-154c-10 10 -24 16 -40 16s-30 -6 -40 -16v154c0 91 71 165 157 165zM305 205c15 0 29 -9 36 -22c2 -5 4 -11 4 -18c0 -17 -3 -34 -8 -49c-20 -67 -79 -116 -149 -116h-1c-86 0 -157 74 -157 165
c0 7 2 13 4 18c7 13 20 22 36 22s29 -9 36 -22c3 -5 4 -11 4 -18c0 -23 8 -45 24 -61c14 -15 33 -24 53 -24s39 9 54 24c15 16 24 38 24 61c0 7 1 13 4 18c6 13 20 22 36 22z" />
    <glyph glyph-name="ograve" unicode="&#xf2;" 
d="M127 601c-18 12 -23 37 -10 56c12 18 38 23 56 10l79 -54c10 -7 15 -21 10 -33c-5 -14 -21 -22 -35 -17l-91 33c-3 1 -6 3 -9 5zM187 525c87 0 158 -74 158 -165v-154c-11 10 -25 16 -40 16c-16 0 -30 -6 -40 -16v154c0 23 -9 45 -24 61s-34 24 -54 24s-39 -8 -53 -24
c-16 -16 -24 -38 -24 -61v-154c-10 10 -24 16 -40 16s-30 -6 -40 -16v154c0 91 71 165 157 165zM305 205c15 0 29 -9 36 -22c2 -5 4 -11 4 -18c0 -17 -3 -34 -8 -49c-20 -67 -79 -116 -149 -116h-1c-86 0 -157 74 -157 165c0 7 2 13 4 18c7 13 20 22 36 22s29 -9 36 -22
c3 -5 4 -11 4 -18c0 -23 8 -45 24 -61c14 -15 33 -24 53 -24s39 9 54 24c15 16 24 38 24 61c0 7 1 13 4 18c6 13 20 22 36 22z" />
    <glyph glyph-name="otilde" unicode="&#xf5;" 
d="M156 603l-71 -27c-12 -3 -25 5 -28 17c-2 10 2 19 10 25l73 53c9 6 21 5 29 0l59 -35l56 24c13 5 28 0 33 -12s1 -25 -9 -32l-68 -44c-7 -4 -16 -6 -23 -2zM187 525c87 0 158 -74 158 -165v-154c-11 10 -25 16 -40 16c-16 0 -30 -6 -40 -16v154c0 23 -9 45 -24 61
s-34 24 -54 24s-39 -8 -53 -24c-16 -16 -24 -38 -24 -61v-154c-10 10 -24 16 -40 16s-30 -6 -40 -16v154c0 91 71 165 157 165zM305 205c15 0 29 -9 36 -22c2 -5 4 -11 4 -18c0 -17 -3 -34 -8 -49c-20 -67 -79 -116 -149 -116h-1c-86 0 -157 74 -157 165c0 7 2 13 4 18
c7 13 20 22 36 22s29 -9 36 -22c3 -5 4 -11 4 -18c0 -23 8 -45 24 -61c14 -15 33 -24 53 -24s39 9 54 24c15 16 24 38 24 61c0 7 1 13 4 18c6 13 20 22 36 22z" />
    <glyph glyph-name="oe" unicode="&#x153;" horiz-adv-x="750" 
d="M187 525c87 0 158 -74 158 -165v-154c-11 10 -25 16 -40 16c-16 0 -30 -6 -40 -16v154c0 23 -9 45 -24 61s-34 24 -54 24s-39 -8 -53 -24c-16 -16 -24 -38 -24 -61v-154c-10 10 -24 16 -40 16s-30 -6 -40 -16v154c0 91 71 165 157 165zM718 386l2 -20v-6
c0 -5 -1 -9 -2 -13c-5 -16 -21 -27 -38 -27c-22 0 -40 18 -40 40c0 2 0 4 -1 6c-1 21 -9 40 -23 55c-15 15 -34 24 -54 24s-39 -9 -53 -24s-22 -34 -24 -55v-6c0 -22 -18 -40 -40 -40c-18 0 -33 11 -38 27c-1 4 -2 8 -2 13v6c0 7 1 13 2 20c12 78 77 139 155 139
c79 0 144 -61 156 -139zM680 189c22 0 40 -18 40 -40c0 -44 -17 -83 -48 -110c-29 -25 -68 -39 -110 -39c-86 0 -157 74 -157 165v154c4 -3 8 -7 12 -9c8 -5 18 -7 28 -7c16 0 30 6 40 16c4 4 7 8 10 13c3 -7 8 -14 14 -20c14 -15 33 -24 53 -24s39 9 54 24c6 6 10 13 14 20
c10 -18 28 -29 50 -29c10 0 19 2 28 7c-24 -60 -80 -102 -146 -102c-28 0 -54 8 -77 21v-64c0 -23 8 -45 24 -61c14 -15 33 -24 53 -24c23 0 43 7 57 19s21 29 21 50c0 22 18 40 40 40zM305 205c15 0 29 -9 36 -22c2 -5 4 -11 4 -18c0 -17 -3 -34 -8 -49
c-20 -67 -79 -116 -149 -116h-1c-86 0 -157 74 -157 165c0 7 2 13 4 18c7 13 20 22 36 22s29 -9 36 -22c3 -5 4 -11 4 -18c0 -23 8 -45 24 -61c14 -15 33 -24 53 -24s39 9 54 24c15 16 24 38 24 61c0 7 1 13 4 18c6 13 20 22 36 22z" />
    <glyph glyph-name="p" unicode="p" 
d="M30 360c0 -7 2 -13 4 -18c7 -13 20 -22 36 -22s29 9 36 22c3 5 4 11 4 18c0 23 8 44 24 61c14 15 33 24 53 24s39 -9 54 -24c15 -17 24 -38 24 -61c0 -7 1 -13 4 -18c6 -13 20 -22 36 -22c15 0 29 9 36 22c2 5 4 11 4 18c0 91 -71 165 -158 165h-1
c-69 -1 -129 -49 -149 -116c-4 -15 -7 -32 -7 -49zM345 165v155c-11 -11 -25 -17 -40 -17c-16 0 -30 6 -40 17v-155c0 -23 -9 -45 -24 -61s-34 -24 -54 -24s-39 8 -53 24c-16 16 -24 38 -24 61v155c-10 -11 -24 -17 -40 -17s-30 6 -40 17v-488c0 -22 18 -40 40 -40
s40 18 40 40v189c23 -13 49 -21 77 -21c87 0 158 74 158 165z" />
    <glyph glyph-name="q" unicode="q" 
d="M345 206v154c0 91 -71 165 -158 165c-86 0 -157 -74 -157 -165v-154c10 10 24 16 40 16s30 -6 40 -16v154c0 23 8 45 24 61c14 16 33 24 53 24s39 -8 54 -24s24 -38 24 -61v-154c10 10 24 16 40 16c15 0 29 -6 40 -16zM187 0c87 0 158 74 158 165c0 22 -18 40 -40 40
s-40 -18 -40 -40c0 -23 -9 -45 -24 -61s-34 -24 -54 -24s-39 8 -53 24c-16 16 -24 38 -24 61c0 22 -18 40 -40 40s-40 -18 -40 -40c0 -91 71 -165 157 -165zM345 -168v255c-17 -37 -45 -67 -80 -85v-170c0 -23 18 -40 40 -40s40 17 40 40z" />
    <glyph glyph-name="r" unicode="r" horiz-adv-x="336" 
d="M307 466c14 -17 12 -42 -6 -56c-17 -14 -42 -12 -56 5c-15 19 -36 29 -58 29c-20 0 -39 -8 -53 -24c-15 -16 -24 -38 -24 -61c0 -22 -18 -40 -40 -40s-40 18 -40 40v119c0 22 18 40 40 40c14 0 27 -8 34 -19c24 16 53 25 83 25c47 0 90 -21 120 -58zM70 302
c16 0 30 6 40 17v-279c0 -22 -18 -40 -40 -40s-40 18 -40 40v279c10 -11 24 -17 40 -17z" />
    <glyph glyph-name="s" unicode="s" 
d="M30 359c0 -7 2 -13 4 -18c7 -13 20 -22 36 -22s29 9 36 22c3 5 4 11 4 18c0 23 8 45 24 61c14 15 33 24 53 24s39 -9 54 -24c15 -16 24 -38 24 -61c0 -7 1 -13 4 -18c6 -13 20 -22 36 -22c15 0 29 9 36 22c2 5 4 11 4 18c0 91 -71 165 -158 165h-1
c-69 0 -129 -49 -149 -116c-4 -15 -7 -32 -7 -49zM248 165c0 30 23 55 52 57l-173 142v-5c0 -29 -22 -54 -51 -57l171 -140c0 1 1 2 1 3zM345 165c0 7 -2 13 -4 18c-7 13 -21 22 -36 22c-16 0 -30 -9 -36 -22c-3 -5 -4 -11 -4 -18c0 -23 -9 -45 -24 -61
c-15 -15 -34 -24 -54 -24s-39 9 -53 24c-16 16 -24 38 -24 61c0 7 -1 13 -4 18c-7 13 -20 22 -36 22s-29 -9 -36 -22c-2 -5 -4 -11 -4 -18c0 -91 71 -165 157 -165h1c70 0 129 49 149 116c5 15 8 32 8 49z" />
    <glyph glyph-name="t" unicode="t" horiz-adv-x="331" 
d="M216 524c0 22 -18 40 -40 40h-66v96c0 22 -18 40 -40 40s-40 -18 -40 -40v-454c10 10 24 16 40 16s30 -6 40 -16v278h66c22 0 40 18 40 40zM70 205c-22 0 -40 -18 -40 -40c0 -91 71 -165 157 -165c47 0 90 21 120 58c14 17 12 42 -6 56c-17 14 -42 12 -56 -5
c-15 -19 -36 -29 -58 -29c-20 0 -39 8 -53 24c-15 16 -24 38 -24 61c0 22 -18 40 -40 40z" />
    <glyph glyph-name="u" unicode="u" 
d="M110 206v279c0 22 -18 40 -40 40s-40 -18 -40 -40v-279c10 10 24 16 40 16s30 -6 40 -16zM345 206v279c0 22 -18 40 -40 40s-40 -18 -40 -40v-279c10 10 24 16 40 16c15 0 29 -6 40 -16zM187 0c87 0 158 74 158 165c0 22 -18 40 -40 40s-40 -18 -40 -40
c0 -23 -9 -45 -24 -61s-34 -24 -54 -24s-39 8 -53 24c-16 16 -24 38 -24 61c0 22 -18 40 -40 40s-40 -18 -40 -40c0 -91 71 -165 157 -165z" />
    <glyph glyph-name="uacute" unicode="&#xfa;" 
d="M147 563l91 33c3 1 6 3 9 5c18 12 23 37 10 56c-12 18 -38 23 -56 10l-79 -54c-10 -7 -15 -21 -10 -33c5 -14 21 -22 35 -17zM110 206v279c0 22 -18 40 -40 40s-40 -18 -40 -40v-279c10 10 24 16 40 16s30 -6 40 -16zM345 206v279c0 22 -18 40 -40 40s-40 -18 -40 -40
v-279c10 10 24 16 40 16c15 0 29 -6 40 -16zM187 0c87 0 158 74 158 165c0 22 -18 40 -40 40s-40 -18 -40 -40c0 -23 -9 -45 -24 -61s-34 -24 -54 -24s-39 8 -53 24c-16 16 -24 38 -24 61c0 22 -18 40 -40 40s-40 -18 -40 -40c0 -91 71 -165 157 -165z" />
    <glyph glyph-name="ucircumflex" unicode="&#xfb;" 
d="M298 576c8 12 5 30 -7 38l-79 55c-3 2 -6 3 -10 5c-5 1 -10 2 -14 2c-8 0 -17 -2 -24 -7l-79 -55c-10 -7 -15 -20 -10 -32c5 -14 21 -22 35 -17l78 31l77 -31c12 -5 25 0 33 11zM110 206v279c0 22 -18 40 -40 40s-40 -18 -40 -40v-279c10 10 24 16 40 16s30 -6 40 -16z
M345 206v279c0 22 -18 40 -40 40s-40 -18 -40 -40v-279c10 10 24 16 40 16c15 0 29 -6 40 -16zM187 0c87 0 158 74 158 165c0 22 -18 40 -40 40s-40 -18 -40 -40c0 -23 -9 -45 -24 -61s-34 -24 -54 -24s-39 8 -53 24c-16 16 -24 38 -24 61c0 22 -18 40 -40 40
s-40 -18 -40 -40c0 -91 71 -165 157 -165z" />
    <glyph glyph-name="udieresis" unicode="&#xfc;" 
d="M91 609c0 -22 18 -40 40 -40s40 18 40 40c0 23 -18 41 -40 41s-40 -18 -40 -41zM203 609c0 -22 18 -40 40 -40c23 0 41 18 41 40c0 23 -18 41 -41 41c-22 0 -40 -18 -40 -41zM110 206v279c0 22 -18 40 -40 40s-40 -18 -40 -40v-279c10 10 24 16 40 16s30 -6 40 -16z
M345 206v279c0 22 -18 40 -40 40s-40 -18 -40 -40v-279c10 10 24 16 40 16c15 0 29 -6 40 -16zM187 0c87 0 158 74 158 165c0 22 -18 40 -40 40s-40 -18 -40 -40c0 -23 -9 -45 -24 -61s-34 -24 -54 -24s-39 8 -53 24c-16 16 -24 38 -24 61c0 22 -18 40 -40 40
s-40 -18 -40 -40c0 -91 71 -165 157 -165z" />
    <glyph glyph-name="ugrave" unicode="&#xf9;" 
d="M136 596l91 -33c14 -5 30 3 35 17c5 12 0 26 -10 33l-79 54c-18 13 -44 8 -56 -10c-13 -19 -8 -44 10 -56c3 -2 6 -4 9 -5zM110 206v279c0 22 -18 40 -40 40s-40 -18 -40 -40v-279c10 10 24 16 40 16s30 -6 40 -16zM345 206v279c0 22 -18 40 -40 40s-40 -18 -40 -40v-279
c10 10 24 16 40 16c15 0 29 -6 40 -16zM187 0c87 0 158 74 158 165c0 22 -18 40 -40 40s-40 -18 -40 -40c0 -23 -9 -45 -24 -61s-34 -24 -54 -24s-39 8 -53 24c-16 16 -24 38 -24 61c0 22 -18 40 -40 40s-40 -18 -40 -40c0 -91 71 -165 157 -165z" />
    <glyph glyph-name="v" unicode="v" horiz-adv-x="391" 
d="M20 486l6 -134c11 11 24 17 39 18h3c15 0 28 -6 38 -15l-6 135c-1 22 -20 39 -42 38s-39 -20 -38 -42zM365 351l6 135c1 22 -16 41 -38 42s-41 -16 -42 -38l-6 -135c10 9 24 14 38 14h3c15 -1 29 -7 39 -18zM196 -9c13 0 25 6 33 17l114 167c4 6 7 13 7 21l13 114
c1 22 -16 41 -38 42s-41 -16 -42 -38l-12 -103l-75 -110l-75 109l-13 105c-1 22 -20 39 -42 38s-39 -20 -38 -42l13 -116c1 -7 3 -14 7 -21l115 -166c7 -11 20 -17 33 -17z" />
    <glyph glyph-name="w" unicode="w" horiz-adv-x="609" 
d="M110 206v279c0 22 -18 40 -40 40s-40 -18 -40 -40v-279c10 10 25 17 40 17c16 0 30 -7 40 -17zM345 206v279c0 22 -18 40 -40 40s-40 -18 -40 -40v-279c10 10 24 16 40 17c15 -1 30 -7 40 -17zM579 206v279c0 22 -18 40 -40 40s-40 -18 -40 -40v-279c10 10 24 17 40 17
c15 0 30 -7 40 -17zM253 120c-14 -24 -38 -40 -65 -40c-43 0 -78 39 -78 85v4c-2 21 -19 37 -40 37s-38 -16 -40 -37v-4c0 -91 71 -165 158 -165c40 0 77 16 105 42c-19 22 -33 48 -40 78zM579 165c0 7 -2 13 -4 18c-7 13 -20 22 -36 22s-29 -9 -36 -22c-3 -5 -4 -11 -4 -18
c0 -23 -9 -44 -24 -61c-14 -15 -33 -24 -53 -24s-40 9 -54 24c-15 17 -24 38 -24 61c0 7 -1 13 -4 18c-6 13 -20 22 -36 22s-29 -9 -36 -22c-2 -5 -4 -11 -4 -18c0 -91 71 -165 158 -165c70 1 130 49 150 116c4 15 7 32 7 49z" />
    <glyph glyph-name="wacute" unicode="&#x1e83;" horiz-adv-x="609" 
d="M257 563l91 33c3 1 6 3 9 5c18 12 23 37 10 56c-12 18 -38 23 -56 10l-79 -54c-10 -7 -15 -21 -10 -33c5 -14 21 -22 35 -17zM110 206v279c0 22 -18 40 -40 40s-40 -18 -40 -40v-279c10 10 25 17 40 17c16 0 30 -7 40 -17zM345 206v279c0 22 -18 40 -40 40
s-40 -18 -40 -40v-279c10 10 24 16 40 17c15 -1 30 -7 40 -17zM579 206v279c0 22 -18 40 -40 40s-40 -18 -40 -40v-279c10 10 24 17 40 17c15 0 30 -7 40 -17zM253 120c-14 -24 -38 -40 -65 -40c-43 0 -78 39 -78 85v4c-2 21 -19 37 -40 37s-38 -16 -40 -37v-4
c0 -91 71 -165 158 -165c40 0 77 16 105 42c-19 22 -33 48 -40 78zM579 165c0 7 -2 13 -4 18c-7 13 -20 22 -36 22s-29 -9 -36 -22c-3 -5 -4 -11 -4 -18c0 -23 -9 -44 -24 -61c-14 -15 -33 -24 -53 -24s-40 9 -54 24c-15 17 -24 38 -24 61c0 7 -1 13 -4 18
c-6 13 -20 22 -36 22s-29 -9 -36 -22c-2 -5 -4 -11 -4 -18c0 -91 71 -165 158 -165c70 1 130 49 150 116c4 15 7 32 7 49z" />
    <glyph glyph-name="wcircumflex" unicode="&#x175;" horiz-adv-x="609" 
d="M415 576c8 12 5 30 -7 38l-79 55c-3 2 -6 3 -10 5c-5 1 -10 2 -14 2c-8 0 -17 -2 -24 -7l-79 -55c-10 -7 -15 -20 -10 -32c5 -14 21 -22 35 -17l78 31l77 -31c12 -5 25 0 33 11zM110 206v279c0 22 -18 40 -40 40s-40 -18 -40 -40v-279c10 10 25 17 40 17
c16 0 30 -7 40 -17zM345 206v279c0 22 -18 40 -40 40s-40 -18 -40 -40v-279c10 10 24 16 40 17c15 -1 30 -7 40 -17zM579 206v279c0 22 -18 40 -40 40s-40 -18 -40 -40v-279c10 10 24 17 40 17c15 0 30 -7 40 -17zM253 120c-14 -24 -38 -40 -65 -40c-43 0 -78 39 -78 85v4
c-2 21 -19 37 -40 37s-38 -16 -40 -37v-4c0 -91 71 -165 158 -165c40 0 77 16 105 42c-19 22 -33 48 -40 78zM579 165c0 7 -2 13 -4 18c-7 13 -20 22 -36 22s-29 -9 -36 -22c-3 -5 -4 -11 -4 -18c0 -23 -9 -44 -24 -61c-14 -15 -33 -24 -53 -24s-40 9 -54 24
c-15 17 -24 38 -24 61c0 7 -1 13 -4 18c-6 13 -20 22 -36 22s-29 -9 -36 -22c-2 -5 -4 -11 -4 -18c0 -91 71 -165 158 -165c70 1 130 49 150 116c4 15 7 32 7 49z" />
    <glyph glyph-name="wdieresis" unicode="&#x1e85;" horiz-adv-x="609" 
d="M209 609c0 -22 18 -40 40 -40s40 18 40 40c0 23 -18 41 -40 41s-40 -18 -40 -41zM321 609c0 -22 18 -40 40 -40c23 0 41 18 41 40c0 23 -18 41 -41 41c-22 0 -40 -18 -40 -41zM110 206v279c0 22 -18 40 -40 40s-40 -18 -40 -40v-279c10 10 25 17 40 17c16 0 30 -7 40 -17
zM345 206v279c0 22 -18 40 -40 40s-40 -18 -40 -40v-279c10 10 24 16 40 17c15 -1 30 -7 40 -17zM579 206v279c0 22 -18 40 -40 40s-40 -18 -40 -40v-279c10 10 24 17 40 17c15 0 30 -7 40 -17zM253 120c-14 -24 -38 -40 -65 -40c-43 0 -78 39 -78 85v4c-2 21 -19 37 -40 37
s-38 -16 -40 -37v-4c0 -91 71 -165 158 -165c40 0 77 16 105 42c-19 22 -33 48 -40 78zM579 165c0 7 -2 13 -4 18c-7 13 -20 22 -36 22s-29 -9 -36 -22c-3 -5 -4 -11 -4 -18c0 -23 -9 -44 -24 -61c-14 -15 -33 -24 -53 -24s-40 9 -54 24c-15 17 -24 38 -24 61
c0 7 -1 13 -4 18c-6 13 -20 22 -36 22s-29 -9 -36 -22c-2 -5 -4 -11 -4 -18c0 -91 71 -165 158 -165c70 1 130 49 150 116c4 15 7 32 7 49z" />
    <glyph glyph-name="wgrave" unicode="&#x1e81;" horiz-adv-x="609" 
d="M257 596l91 -33c14 -5 30 3 35 17c5 12 0 26 -10 33l-79 54c-18 13 -44 8 -56 -10c-13 -19 -8 -44 10 -56c3 -2 6 -4 9 -5zM110 206v279c0 22 -18 40 -40 40s-40 -18 -40 -40v-279c10 10 25 17 40 17c16 0 30 -7 40 -17zM345 206v279c0 22 -18 40 -40 40s-40 -18 -40 -40
v-279c10 10 24 16 40 17c15 -1 30 -7 40 -17zM579 206v279c0 22 -18 40 -40 40s-40 -18 -40 -40v-279c10 10 24 17 40 17c15 0 30 -7 40 -17zM253 120c-14 -24 -38 -40 -65 -40c-43 0 -78 39 -78 85v4c-2 21 -19 37 -40 37s-38 -16 -40 -37v-4c0 -91 71 -165 158 -165
c40 0 77 16 105 42c-19 22 -33 48 -40 78zM579 165c0 7 -2 13 -4 18c-7 13 -20 22 -36 22s-29 -9 -36 -22c-3 -5 -4 -11 -4 -18c0 -23 -9 -44 -24 -61c-14 -15 -33 -24 -53 -24s-40 9 -54 24c-15 17 -24 38 -24 61c0 7 -1 13 -4 18c-6 13 -20 22 -36 22s-29 -9 -36 -22
c-2 -5 -4 -11 -4 -18c0 -91 71 -165 158 -165c70 1 130 49 150 116c4 15 7 32 7 49z" />
    <glyph glyph-name="x" unicode="x" 
d="M110 443v42c0 22 -18 40 -40 40s-40 -18 -40 -40v-42c10 10 24 17 40 17s30 -7 40 -17zM345 443v42c0 22 -18 40 -40 40s-40 -18 -40 -40v-42c10 10 24 17 40 17c15 0 29 -7 40 -17zM345 403c0 22 -18 40 -40 40s-40 -18 -40 -40c0 -24 -9 -45 -24 -62
c-7 -7 -15 -13 -24 -17s-19 -7 -30 -7c-10 0 -20 3 -30 7c-8 4 -16 10 -23 17c-16 17 -24 38 -24 62c0 22 -18 40 -40 40s-40 -18 -40 -40c0 -29 7 -55 19 -78c8 -16 18 -30 31 -43c21 -21 48 -36 77 -42c10 -2 20 -3 30 -3c11 0 21 1 30 3c30 6 57 21 78 42
c12 12 23 27 31 43c12 23 19 49 19 78zM68 270c-24 -29 -38 -67 -38 -108v-122c0 -22 18 -40 40 -40s40 18 40 40v122c0 23 8 45 24 61c1 2 3 3 4 5c-26 8 -50 22 -70 42zM345 40v122c0 41 -15 79 -38 108c-20 -20 -44 -34 -71 -42c2 -2 4 -3 5 -5c15 -16 24 -38 24 -61
v-122c0 -22 18 -40 40 -40s40 18 40 40z" />
    <glyph glyph-name="y" unicode="y" 
d="M110 206v279c0 22 -18 40 -40 40s-40 -18 -40 -40v-279c10 10 24 16 40 16s30 -6 40 -16zM345 206v279c0 22 -18 40 -40 40s-40 -18 -40 -40v-279c10 10 24 16 40 16c15 0 29 -6 40 -16zM187 0c87 0 158 74 158 165c0 22 -18 40 -40 40s-40 -18 -40 -40
c0 -23 -9 -45 -24 -61s-34 -24 -54 -24s-39 8 -53 24c-16 16 -24 38 -24 61c0 22 -18 40 -40 40s-40 -18 -40 -40c0 -91 71 -165 157 -165zM345 -43v130c-17 -37 -45 -67 -80 -85v-45c0 -23 -9 -45 -24 -61s-34 -24 -54 -24c-22 0 -42 6 -56 18s-21 29 -21 51s-18 40 -40 40
s-40 -18 -40 -40c0 -44 17 -84 48 -111c28 -25 67 -38 109 -38c87 0 158 74 158 165z" />
    <glyph glyph-name="yacute" unicode="&#xfd;" 
d="M147 563l91 33c3 1 6 3 9 5c18 12 23 37 10 56c-12 18 -38 23 -56 10l-79 -54c-10 -7 -15 -21 -10 -33c5 -14 21 -22 35 -17zM110 206v279c0 22 -18 40 -40 40s-40 -18 -40 -40v-279c10 10 24 16 40 16s30 -6 40 -16zM345 206v279c0 22 -18 40 -40 40s-40 -18 -40 -40
v-279c10 10 24 16 40 16c15 0 29 -6 40 -16zM187 0c87 0 158 74 158 165c0 22 -18 40 -40 40s-40 -18 -40 -40c0 -23 -9 -45 -24 -61s-34 -24 -54 -24s-39 8 -53 24c-16 16 -24 38 -24 61c0 22 -18 40 -40 40s-40 -18 -40 -40c0 -91 71 -165 157 -165zM345 -43v130
c-17 -37 -45 -67 -80 -85v-45c0 -23 -9 -45 -24 -61s-34 -24 -54 -24c-22 0 -42 6 -56 18s-21 29 -21 51s-18 40 -40 40s-40 -18 -40 -40c0 -44 17 -84 48 -111c28 -25 67 -38 109 -38c87 0 158 74 158 165z" />
    <glyph glyph-name="ycircumflex" unicode="&#x177;" 
d="M298 576c8 12 5 30 -7 38l-79 55c-3 2 -6 3 -10 5c-5 1 -10 2 -14 2c-8 0 -17 -2 -24 -7l-79 -55c-10 -7 -15 -20 -10 -32c5 -14 21 -22 35 -17l78 31l77 -31c12 -5 25 0 33 11zM110 206v279c0 22 -18 40 -40 40s-40 -18 -40 -40v-279c10 10 24 16 40 16s30 -6 40 -16z
M345 206v279c0 22 -18 40 -40 40s-40 -18 -40 -40v-279c10 10 24 16 40 16c15 0 29 -6 40 -16zM187 0c87 0 158 74 158 165c0 22 -18 40 -40 40s-40 -18 -40 -40c0 -23 -9 -45 -24 -61s-34 -24 -54 -24s-39 8 -53 24c-16 16 -24 38 -24 61c0 22 -18 40 -40 40
s-40 -18 -40 -40c0 -91 71 -165 157 -165zM345 -43v130c-17 -37 -45 -67 -80 -85v-45c0 -23 -9 -45 -24 -61s-34 -24 -54 -24c-22 0 -42 6 -56 18s-21 29 -21 51s-18 40 -40 40s-40 -18 -40 -40c0 -44 17 -84 48 -111c28 -25 67 -38 109 -38c87 0 158 74 158 165z" />
    <glyph glyph-name="ydieresis" unicode="&#xff;" 
d="M91 609c0 -22 18 -40 40 -40s40 18 40 40c0 23 -18 41 -40 41s-40 -18 -40 -41zM203 609c0 -22 18 -40 40 -40c23 0 41 18 41 40c0 23 -18 41 -41 41c-22 0 -40 -18 -40 -41zM110 206v279c0 22 -18 40 -40 40s-40 -18 -40 -40v-279c10 10 24 16 40 16s30 -6 40 -16z
M345 206v279c0 22 -18 40 -40 40s-40 -18 -40 -40v-279c10 10 24 16 40 16c15 0 29 -6 40 -16zM187 0c87 0 158 74 158 165c0 22 -18 40 -40 40s-40 -18 -40 -40c0 -23 -9 -45 -24 -61s-34 -24 -54 -24s-39 8 -53 24c-16 16 -24 38 -24 61c0 22 -18 40 -40 40
s-40 -18 -40 -40c0 -91 71 -165 157 -165zM345 -43v130c-17 -37 -45 -67 -80 -85v-45c0 -23 -9 -45 -24 -61s-34 -24 -54 -24c-22 0 -42 6 -56 18s-21 29 -21 51s-18 40 -40 40s-40 -18 -40 -40c0 -44 17 -84 48 -111c28 -25 67 -38 109 -38c87 0 158 74 158 165z" />
    <glyph glyph-name="ygrave" unicode="&#x1ef3;" 
d="M136 596l91 -33c14 -5 30 3 35 17c5 12 0 26 -10 33l-79 54c-18 13 -44 8 -56 -10c-13 -19 -8 -44 10 -56c3 -2 6 -4 9 -5zM110 206v279c0 22 -18 40 -40 40s-40 -18 -40 -40v-279c10 10 24 16 40 16s30 -6 40 -16zM345 206v279c0 22 -18 40 -40 40s-40 -18 -40 -40v-279
c10 10 24 16 40 16c15 0 29 -6 40 -16zM187 0c87 0 158 74 158 165c0 22 -18 40 -40 40s-40 -18 -40 -40c0 -23 -9 -45 -24 -61s-34 -24 -54 -24s-39 8 -53 24c-16 16 -24 38 -24 61c0 22 -18 40 -40 40s-40 -18 -40 -40c0 -91 71 -165 157 -165zM345 -43v130
c-17 -37 -45 -67 -80 -85v-45c0 -23 -9 -45 -24 -61s-34 -24 -54 -24c-22 0 -42 6 -56 18s-21 29 -21 51s-18 40 -40 40s-40 -18 -40 -40c0 -44 17 -84 48 -111c28 -25 67 -38 109 -38c87 0 158 74 158 165z" />
    <glyph glyph-name="z" unicode="z" horiz-adv-x="403" 
d="M30 485c0 -22 18 -40 40 -40h193l-66 -112c4 1 9 2 13 2c11 0 21 -3 30 -8c13 -8 22 -21 26 -35l101 173c8 12 8 27 1 40c-7 12 -21 20 -35 20h-263c-22 0 -40 -18 -40 -40zM70 0h263c22 0 40 18 40 40s-18 40 -40 40h-193l105 177c11 19 5 44 -14 55s-44 5 -55 -14
l-140 -238c-7 -12 -8 -27 0 -40c7 -12 20 -20 34 -20z" />
    <glyph glyph-name="f_i" horiz-adv-x="387" 
d="M307 641c14 -17 12 -42 -6 -56c-17 -14 -42 -12 -56 5c-15 19 -36 29 -58 29c-20 0 -39 -8 -53 -24c-15 -16 -24 -38 -24 -61c0 -22 -18 -40 -40 -40s-40 18 -40 40c0 91 71 165 157 165c47 0 90 -21 120 -58zM317 525c22 0 40 -18 40 -40v-127c-10 10 -24 16 -40 16
c-15 0 -30 -6 -40 -16v127c0 22 18 40 40 40zM110 389h77c22 0 40 -18 40 -40c0 -23 -18 -40 -40 -40h-77v-269c0 -22 -18 -40 -40 -40s-40 18 -40 40v453c11 -10 25 -16 40 -16c16 0 30 6 40 17v-105zM317 357c21 0 38 -16 40 -36v-4v-277c0 -22 -18 -40 -40 -40
s-40 18 -40 40v277v4c2 20 19 36 40 36z" />
    <glyph glyph-name="zero" unicode="0" 
d="M345 534c0 91 -71 166 -158 166c-86 0 -157 -75 -157 -166c0 -22 18 -40 40 -40s40 18 40 40c0 23 8 45 24 61c14 16 33 25 53 25s39 -9 54 -25s24 -38 24 -61c0 -22 18 -40 40 -40s40 18 40 40zM305 477c-16 0 -30 7 -40 17v-329c0 -23 -9 -45 -24 -61
c-15 -15 -34 -24 -54 -24s-39 9 -53 24c-16 16 -24 38 -24 61v329c-10 -10 -24 -17 -40 -17s-30 7 -40 17v-329c0 -91 71 -165 157 -165c87 0 158 74 158 165v329c-11 -10 -25 -17 -40 -17z" />
    <glyph glyph-name="one" unicode="1" horiz-adv-x="297" 
d="M237 364v296c0 22 -18 40 -40 40h-2c-11 0 -21 -4 -29 -12l-125 -129c-15 -16 -15 -41 1 -57c8 -7 18 -11 28 -11s21 4 29 12l58 60v-199c10 10 24 17 40 17c15 0 29 -7 40 -17zM237 324v3c-2 21 -19 37 -40 37s-38 -16 -40 -37v-3v-284c0 -22 18 -40 40 -40s40 18 40 40
v284z" />
    <glyph glyph-name="two" unicode="2" horiz-adv-x="380" 
d="M35 533c0 -6 2 -12 4 -18c7 -13 21 -22 36 -22c16 0 30 9 36 22c3 6 4 12 4 18c0 23 9 45 24 61s34 24 54 24s39 -8 53 -24c16 -16 24 -38 24 -61c0 -6 1 -12 4 -18c7 -13 20 -22 36 -22s29 9 36 22c2 6 4 12 4 18c0 91 -71 165 -157 165h-1c-70 0 -129 -49 -149 -115
c-5 -16 -8 -33 -8 -50zM350 40c0 22 -18 40 -40 40h-175l201 402c-8 -4 -17 -6 -26 -6c-22 0 -42 13 -51 32l-225 -450c-6 -13 -5 -27 2 -39s20 -19 34 -19h240c22 0 40 18 40 40z" />
    <glyph glyph-name="three" unicode="3" horiz-adv-x="380" 
d="M206 385l139 255c7 12 6 27 -1 39s-20 20 -34 20h-240c-22 0 -40 -18 -40 -40s18 -40 40 -40h172l-122 -225c5 1 10 2 15 2c25 0 49 -4 71 -11zM97 0h40c109 0 199 85 199 189c0 105 -90 190 -199 190c-23 0 -40 -18 -40 -40s17 -40 40 -40c32 0 62 -12 85 -33
c22 -21 34 -48 34 -77c0 -28 -12 -55 -34 -76c-23 -21 -53 -33 -85 -33h-40c-22 0 -40 -18 -40 -40s18 -40 40 -40z" />
    <glyph glyph-name="four" unicode="4" 
d="M110 659v-207c-10 11 -24 17 -40 17c-15 0 -29 -6 -40 -16v206c0 22 18 40 40 40s40 -18 40 -40zM305 452c22 0 40 -18 40 -40v-8c-2 -59 -35 -109 -80 -136c-23 -13 -50 -21 -78 -21c-86 0 -157 74 -157 165v5c0 18 20 35 40 35c22 0 40 -18 40 -40v-6
c1 -21 10 -40 24 -55c14 -16 33 -24 53 -24s39 8 54 24s24 38 24 61c0 22 18 40 40 40zM265 40v209c34 18 63 48 80 84v-293c0 -22 -18 -40 -40 -40c-23 0 -40 18 -40 40z" />
    <glyph glyph-name="five" unicode="5" horiz-adv-x="376" 
d="M346 660c0 22 -18 40 -40 40h-236c-22 0 -40 -18 -40 -40v-159l4 4c11 9 23 12 36 12c15 0 30 -6 40 -16v119h196c22 0 40 18 40 40zM306 126c8 0 17 3 25 9c17 14 20 39 6 56l-234 294c-14 17 -39 20 -57 6c-17 -14 -20 -39 -6 -56l234 -294c8 -9 20 -15 32 -15z
M306 109c-18 0 -34 7 -45 21l-2 3c-12 -31 -39 -53 -71 -53c-43 0 -78 39 -78 85c0 23 -18 41 -40 41s-40 -18 -40 -41c0 -91 71 -165 158 -165c71 0 132 50 151 119c-10 -7 -21 -10 -33 -10z" />
    <glyph glyph-name="six" unicode="6" 
d="M193 383l142 257c11 20 4 44 -16 55c-19 10 -43 3 -54 -16l-184 -334c29 24 66 38 106 38h6zM30 201c0 -7 2 -13 4 -18c7 -13 20 -22 36 -22s29 9 36 22c3 5 4 11 4 18c0 23 8 45 24 61c14 15 33 24 53 24s39 -9 54 -24c15 -16 24 -38 24 -61c0 -7 1 -13 4 -18
c6 -13 20 -22 36 -22c15 0 29 9 36 22c2 5 4 11 4 18c0 91 -71 165 -158 165h-1c-69 0 -129 -49 -149 -116c-4 -15 -7 -32 -7 -49zM345 160c-11 -10 -25 -16 -40 -16c-16 0 -30 6 -40 16c-2 -21 -10 -41 -24 -56c-15 -15 -34 -24 -54 -24s-39 9 -53 24c-15 15 -23 35 -24 56
c-10 -10 -24 -16 -40 -16s-30 6 -40 16c3 -89 72 -160 157 -160s155 71 158 160z" />
    <glyph glyph-name="seven" unicode="7" horiz-adv-x="378" 
d="M293 509l52 136c5 12 3 26 -4 37c-8 11 -20 17 -33 17h-236c-22 0 -40 -18 -40 -40s18 -40 40 -40h178l-32 -82c12 7 30 6 43 1c15 -5 26 -16 32 -29zM70 0c16 0 31 10 37 26l171 444c8 21 -3 44 -23 52c-21 8 -44 -3 -52 -23l-170 -445c-8 -20 2 -43 23 -51
c4 -2 9 -3 14 -3z" />
    <glyph glyph-name="eight" unicode="8" horiz-adv-x="455" 
d="M345 559c15 0 29 -6 40 -16c-3 88 -72 160 -157 160h-1c-70 -1 -130 -49 -150 -116c-4 -14 -6 -29 -7 -44c11 10 25 16 40 16c16 0 30 -6 40 -16c1 21 10 40 24 55c14 16 33 25 54 25c20 0 39 -9 53 -25c14 -15 23 -34 24 -55c10 10 24 16 40 16zM385 502
c0 6 -2 12 -4 18c-7 13 -20 22 -36 22s-29 -9 -36 -22c-3 -6 -4 -12 -4 -18c0 -23 -9 -45 -24 -61c-14 -16 -33 -24 -53 -24c-21 0 -40 8 -54 24c-15 16 -24 38 -24 61c0 6 -1 12 -4 18c-7 13 -20 22 -36 22s-29 -9 -36 -22c-2 -6 -4 -12 -4 -18c0 -91 71 -165 158 -165
c70 0 130 49 150 115c4 16 7 33 7 50zM181 326c-29 8 -55 24 -76 46c-35 -30 -60 -72 -70 -120c10 8 22 13 36 13c18 0 34 -8 44 -21c6 21 16 40 31 56c10 11 22 20 35 26zM384 265c14 0 26 -5 36 -13c-10 48 -35 90 -70 120c-21 -22 -47 -38 -76 -46c13 -6 25 -15 35 -26
c15 -16 25 -35 31 -56c10 13 26 21 44 21zM228 0c108 0 197 93 197 208c0 22 -18 40 -40 40s-40 -18 -40 -40c0 -34 -13 -67 -35 -91c-23 -24 -52 -37 -82 -37c-31 0 -60 13 -83 37c-22 24 -35 57 -35 91c0 22 -18 40 -40 40s-40 -18 -40 -40c0 -115 89 -208 198 -208z" />
    <glyph glyph-name="nine" unicode="9" 
d="M305 556c15 0 29 -6 40 -17c-3 89 -73 161 -158 161s-154 -72 -157 -161c10 11 24 17 40 17s30 -7 40 -17c1 22 9 41 24 56c14 16 33 25 53 25s39 -9 54 -25c14 -15 22 -34 24 -56c10 10 24 17 40 17zM345 499c0 6 -2 12 -4 18c-7 13 -21 22 -36 22c-16 0 -30 -9 -36 -22
c-3 -6 -4 -12 -4 -18c0 -23 -9 -45 -24 -61s-34 -24 -54 -24s-39 8 -53 24c-16 16 -24 38 -24 61c0 6 -1 12 -4 18c-7 13 -20 22 -36 22s-29 -9 -36 -22c-2 -6 -4 -12 -4 -18c0 -91 71 -165 157 -165h1c70 0 129 49 149 115c5 16 8 33 8 50zM187 317h-8l-142 -258
c-11 -19 -4 -43 16 -54c6 -3 12 -5 19 -5c14 0 28 7 35 21l182 330c-28 -22 -64 -34 -102 -34z" />
    <glyph glyph-name="fraction" unicode="&#x2044;" horiz-adv-x="386" 
d="M50 0c15 0 29 9 36 23l287 620c9 20 0 44 -20 53s-43 0 -53 -20l-287 -619c-9 -20 0 -44 20 -53c5 -3 11 -4 17 -4z" />
    <glyph glyph-name="asterisk" unicode="*" horiz-adv-x="290" 
d="M200 608l44 21c11 6 18 18 15 30c-3 16 -17 25 -32 22l-48 -9l-7 48c-2 12 -12 22 -25 24c-15 2 -29 -9 -30 -24l-6 -49l-48 8c-12 3 -25 -4 -30 -15c-7 -14 -1 -31 13 -37l45 -21l-23 -43c-6 -11 -4 -25 5 -33c12 -11 29 -10 40 1l33 36l34 -35c9 -9 22 -11 34 -5
c13 8 18 24 10 38z" />
    <glyph glyph-name="backslash" unicode="\" horiz-adv-x="386" 
d="M336 0c6 0 12 1 17 4c20 9 29 33 20 53l-287 619c-10 20 -33 29 -53 20s-29 -33 -20 -53l287 -620c7 -14 21 -23 36 -23z" />
    <glyph glyph-name="periodcentered" unicode="&#xb7;" horiz-adv-x="192" 
d="M30 252c0 -36 29 -66 66 -66s66 30 66 66c0 37 -29 67 -66 67s-66 -30 -66 -67z" />
    <glyph glyph-name="bullet" unicode="&#x2022;" horiz-adv-x="304" 
d="M30 300c0 -67 55 -122 122 -122s122 55 122 122s-55 122 -122 122s-122 -55 -122 -122z" />
    <glyph glyph-name="colon" unicode=":" horiz-adv-x="140" 
d="M30 318c0 -22 18 -40 40 -40s40 18 40 40s-18 40 -40 40s-40 -18 -40 -40zM30 40c0 -22 18 -40 40 -40s40 18 40 40s-18 40 -40 40s-40 -18 -40 -40z" />
    <glyph glyph-name="comma" unicode="," horiz-adv-x="154" 
d="M124 40v-3c1 -47 -31 -88 -76 -94h-2c-8 0 -15 6 -16 14s5 16 14 18c16 2 30 12 38 25c-21 1 -38 19 -38 40c0 22 18 40 40 40s40 -18 40 -40z" />
    <glyph glyph-name="ellipsis" unicode="&#x2026;" horiz-adv-x="360" 
d="M30 40c0 -22 18 -40 40 -40s40 18 40 40s-18 40 -40 40s-40 -18 -40 -40zM140 40c0 -22 18 -40 40 -40s40 18 40 40s-18 40 -40 40s-40 -18 -40 -40zM250 40c0 -22 18 -40 40 -40s40 18 40 40s-18 40 -40 40s-40 -18 -40 -40z" />
    <glyph glyph-name="exclam" unicode="!" horiz-adv-x="140" 
d="M110 343v315c0 13 -5 24 -14 31c-2 2 -4 3 -6 4c-6 4 -13 6 -20 6s-14 -2 -20 -6c-2 -1 -4 -2 -5 -4c-9 -7 -15 -18 -15 -31v-315v-4c2 -21 19 -37 40 -37s38 16 40 37v4zM70 285c-15 0 -29 7 -40 17v-136c0 -22 18 -40 40 -40s40 18 40 40v136c-10 -10 -24 -17 -40 -17z
M30 40c0 -22 18 -40 40 -40s40 18 40 40s-18 40 -40 40s-40 -18 -40 -40z" />
    <glyph glyph-name="exclamdown" unicode="&#xa1;" horiz-adv-x="140" 
d="M30 500c0 -22 18 -40 40 -40s40 18 40 40s-18 40 -40 40s-40 -18 -40 -40zM70 255c16 0 30 -7 40 -17v136c0 22 -18 40 -40 40s-40 -18 -40 -40v-136c11 10 25 17 40 17zM110 197v4c-2 21 -19 37 -40 37s-38 -16 -40 -37v-4v-315c0 -13 6 -24 15 -31c1 -2 3 -3 5 -4
c6 -4 13 -6 20 -6s14 2 20 6c2 1 4 2 6 4c9 7 14 18 14 31v315z" />
    <glyph glyph-name="numbersign" unicode="#" horiz-adv-x="725" 
d="M179 0c17 0 33 11 38 28l188 620c6 21 -6 43 -27 49c-21 7 -43 -5 -50 -26l-188 -619c-6 -22 6 -44 27 -50c4 -1 8 -2 12 -2zM359 0c17 0 33 11 38 28l188 620c6 21 -6 43 -27 49c-21 7 -43 -5 -50 -26l-188 -619c-6 -22 6 -44 27 -50c4 -1 8 -2 12 -2zM251 475h-123
c-22 0 -40 -18 -40 -40s18 -40 40 -40h99zM370 475l-24 -80h61l24 80h-61zM695 435c0 23 -18 40 -40 40h-105l-24 -80h129c22 0 40 18 40 40zM199 304h-129c-22 0 -40 -18 -40 -40s18 -40 40 -40h105zM318 304l-24 -80h61l24 80h-61zM637 264c0 22 -18 40 -40 40h-99
l-24 -80h123c22 0 40 18 40 40z" />
    <glyph glyph-name="period" unicode="." horiz-adv-x="140" 
d="M30 40c0 -22 18 -40 40 -40s40 18 40 40s-18 40 -40 40s-40 -18 -40 -40z" />
    <glyph glyph-name="question" unicode="?" 
d="M30 535c0 -7 2 -13 4 -18c7 -13 20 -22 36 -22s29 9 36 22c3 5 4 11 4 18c0 23 8 44 24 61c14 15 33 24 53 24s39 -9 54 -24c15 -17 24 -38 24 -61c0 -7 1 -13 4 -18c6 -13 20 -22 36 -22c15 0 29 9 36 22c2 5 4 11 4 18c0 91 -71 165 -158 165h-1
c-69 -1 -129 -49 -149 -116c-4 -16 -7 -32 -7 -49zM305 478c-25 0 -47 16 -54 38l-101 -180c-4 -6 -5 -12 -5 -19v-151c0 -22 17 -40 40 -40c22 0 40 18 40 40v140l97 174c-5 -2 -11 -2 -17 -2zM144 40c0 -22 18 -40 40 -40c23 0 41 18 41 40s-18 40 -41 40
c-22 0 -40 -18 -40 -40z" />
    <glyph glyph-name="questiondown" unicode="&#xbf;" 
d="M231 481c0 22 -18 40 -40 40c-23 0 -41 -18 -41 -40s18 -40 41 -40c22 0 40 18 40 40zM70 43c25 0 47 -16 54 -38l101 180c4 6 5 12 5 19v151c0 22 -17 40 -40 40c-22 0 -40 -18 -40 -40v-140l-97 -174c5 2 11 2 17 2zM345 -15c0 7 -2 13 -4 18c-7 14 -20 23 -36 23
s-29 -9 -36 -22c-3 -5 -4 -11 -4 -18c0 -23 -8 -45 -24 -61c-14 -16 -33 -25 -53 -24c-20 0 -39 9 -54 24c-15 17 -24 38 -24 61c0 7 -1 13 -4 18c-6 13 -20 22 -36 22c-15 0 -29 -9 -36 -22c-2 -5 -4 -11 -4 -18c0 -91 71 -165 158 -165h1c69 1 129 48 149 115
c4 16 7 32 7 49z" />
    <glyph glyph-name="quotedbl" unicode="&#x22;" horiz-adv-x="238" 
d="M111 671v10c-3 22 -24 38 -46 35s-37 -23 -34 -45l12 -96c2 -12 11 -22 24 -24c15 -2 29 9 31 24zM195 575l12 96c1 3 1 7 0 10c-3 22 -23 38 -45 35s-38 -23 -35 -45l13 -96c1 -12 11 -22 24 -24c15 -2 29 9 31 24z" />
    <glyph glyph-name="quotesingle" unicode="'" horiz-adv-x="141" 
d="M111 671v10c-3 22 -24 38 -46 35s-37 -23 -34 -45l12 -96c2 -12 11 -22 24 -24c15 -2 29 9 31 24z" />
    <glyph glyph-name="semicolon" unicode=";" horiz-adv-x="154" 
d="M83 278c-22 0 -40 18 -40 40s18 40 40 40c23 0 41 -18 41 -40s-18 -40 -41 -40zM83 80c23 0 41 -18 41 -40v-5c0 -46 -32 -86 -76 -92h-3c-7 0 -14 6 -15 14c-2 8 5 16 13 18c16 2 30 12 39 25c-22 1 -39 18 -39 40s18 40 40 40z" />
    <glyph glyph-name="slash" unicode="/" horiz-adv-x="386" 
d="M50 0c15 0 29 9 36 23l287 620c9 20 0 44 -20 53s-43 0 -53 -20l-287 -619c-9 -20 0 -44 20 -53c5 -3 11 -4 17 -4z" />
    <glyph glyph-name="underscore" unicode="_" horiz-adv-x="504" 
d="M70 -81h364c22 0 40 18 40 40s-18 40 -40 40h-364c-22 0 -40 -18 -40 -40s18 -40 40 -40z" />
    <glyph glyph-name="braceleft" unicode="{" horiz-adv-x="302" 
d="M30 350c0 -22 18 -40 40 -40h28v-270c0 -22 18 -40 40 -40h94c22 0 40 18 40 40s-18 40 -40 40h-54v540h54c22 0 40 17 40 40c0 22 -18 40 -40 40h-94c-22 0 -40 -18 -40 -40v-270h-28c-22 0 -40 -18 -40 -40z" />
    <glyph glyph-name="braceright" unicode="}" horiz-adv-x="302" 
d="M272 350c0 22 -18 40 -40 40h-28v270c0 22 -18 40 -40 40h-94c-22 0 -40 -18 -40 -40c0 -23 18 -40 40 -40h54v-540h-54c-22 0 -40 -18 -40 -40s18 -40 40 -40h94c22 0 40 18 40 40v270h28c22 0 40 18 40 40z" />
    <glyph glyph-name="bracketleft" unicode="[" horiz-adv-x="234" 
d="M30 660v-620c0 -22 18 -40 40 -40h94c22 0 40 18 40 40s-18 40 -40 40h-54v540h54c22 0 40 17 40 40c0 22 -18 40 -40 40h-94c-22 0 -40 -18 -40 -40z" />
    <glyph glyph-name="bracketright" unicode="]" horiz-adv-x="234" 
d="M204 40v620c0 22 -18 40 -40 40h-94c-22 0 -40 -18 -40 -40c0 -23 18 -40 40 -40h54v-540h-54c-22 0 -40 -18 -40 -40s18 -40 40 -40h94c22 0 40 18 40 40z" />
    <glyph glyph-name="parenleft" unicode="(" horiz-adv-x="257" 
d="M187 0c22 0 40 18 40 40s-18 40 -40 40c-20 0 -39 9 -53 24c-16 16 -24 38 -24 61v371c0 23 8 44 24 61c14 15 33 24 53 24c22 0 40 18 40 40s-18 40 -40 40c-86 0 -157 -74 -157 -165v-371c0 -91 71 -165 157 -165z" />
    <glyph glyph-name="parenright" unicode=")" horiz-adv-x="257" 
d="M70 0c86 0 157 74 157 165v371c0 91 -71 165 -157 165c-22 0 -40 -18 -40 -40s18 -40 40 -40c20 0 39 -9 53 -24c16 -17 24 -38 24 -61v-371c0 -23 -8 -45 -24 -61c-14 -15 -33 -24 -53 -24c-22 0 -40 -18 -40 -40s18 -40 40 -40z" />
    <glyph glyph-name="emdash" unicode="&#x2014;" horiz-adv-x="598" 
d="M70 305h458c22 0 40 18 40 40s-18 40 -40 40h-458c-22 0 -40 -18 -40 -40s18 -40 40 -40z" />
    <glyph glyph-name="endash" unicode="&#x2013;" horiz-adv-x="477" 
d="M70 305h337c22 0 40 18 40 40s-18 40 -40 40h-337c-22 0 -40 -18 -40 -40s18 -40 40 -40z" />
    <glyph glyph-name="hyphen" unicode="-" horiz-adv-x="357" 
d="M70 305h217c22 0 40 18 40 40s-18 40 -40 40h-217c-22 0 -40 -18 -40 -40s18 -40 40 -40z" />
    <glyph glyph-name="guillemotleft" unicode="&#xab;" 
d="M70 220c10 0 20 4 28 12l93 93c16 15 16 41 0 56c-15 16 -41 16 -56 0l-93 -93c-16 -15 -16 -41 0 -56c7 -8 18 -12 28 -12zM212 220c10 0 20 4 28 12l93 93c16 15 16 41 0 56c-15 16 -41 16 -56 0l-93 -93c-16 -15 -16 -41 0 -56c8 -8 18 -12 28 -12zM70 203l65 -65
c8 -8 18 -12 29 -12c10 0 20 4 28 12c15 16 15 41 0 57l-53 53l-28 -28c-11 -11 -25 -17 -41 -17zM212 203l65 -65c8 -8 18 -12 28 -12s20 4 28 12c16 16 16 41 0 57l-53 53l-28 -28c-10 -11 -25 -17 -40 -17z" />
    <glyph glyph-name="guillemotright" unicode="&#xbb;" 
d="M163 220c10 0 20 4 28 12c16 15 16 41 0 56l-93 93c-15 16 -41 16 -56 0c-16 -15 -16 -41 0 -56l93 -93c8 -8 18 -12 28 -12zM305 220c10 0 21 4 28 12c16 15 16 41 0 56l-93 93c-15 16 -41 16 -56 0c-16 -15 -16 -41 0 -56l93 -93c8 -8 18 -12 28 -12zM123 220l-28 28
l-53 -53c-16 -16 -16 -41 0 -57c8 -8 18 -12 28 -12s20 4 28 12l65 65zM240 138l65 65c-16 0 -30 6 -41 17l-28 28l-53 -53c-15 -16 -15 -41 0 -57c8 -8 18 -12 28 -12c11 0 21 4 29 12z" />
    <glyph glyph-name="guilsinglleft" unicode="&#x2039;" horiz-adv-x="233" 
d="M70 220c10 0 20 4 28 12l93 93c16 15 16 41 0 56c-15 16 -41 16 -56 0l-93 -93c-16 -15 -16 -41 0 -56c7 -8 18 -12 28 -12zM70 203l65 -65c8 -8 18 -12 29 -12c10 0 20 4 28 12c15 16 15 41 0 57l-53 53l-28 -28c-11 -11 -25 -17 -41 -17z" />
    <glyph glyph-name="guilsinglright" unicode="&#x203a;" horiz-adv-x="234" 
d="M164 220c10 0 21 4 28 12c16 15 16 41 0 56l-93 93c-15 16 -41 16 -56 0c-16 -15 -16 -41 0 -56l93 -93c8 -8 18 -12 28 -12zM99 138l65 65c-16 0 -30 6 -41 17l-28 28l-53 -53c-15 -16 -15 -41 0 -57c8 -8 18 -12 28 -12c11 0 21 4 29 12z" />
    <glyph glyph-name="quotedblbase" unicode="&#x201e;" horiz-adv-x="600" 
d="M124 40v-3c1 -47 -31 -88 -76 -94h-2c-8 0 -15 6 -16 14s5 16 14 18c16 2 30 12 38 25c-21 1 -38 19 -38 40c0 22 18 40 40 40s40 -18 40 -40z" />
    <glyph glyph-name="quotedblleft" unicode="&#x201c;" horiz-adv-x="257" 
d="M106 720h2c8 0 15 -6 16 -14s-5 -16 -14 -18c-16 -2 -29 -12 -38 -25c21 -1 38 -19 38 -40c0 -22 -18 -40 -40 -40s-40 18 -40 40v3c-1 47 32 88 76 94zM227 706c1 -8 -5 -16 -14 -18c-16 -2 -29 -12 -38 -25c21 -1 38 -19 38 -40c0 -22 -18 -40 -40 -40s-40 18 -40 40v3
c-1 47 32 88 76 94h2c8 0 15 -6 16 -14z" />
    <glyph glyph-name="quotedblright" unicode="&#x201d;" horiz-adv-x="257" 
d="M84 723c22 0 40 -18 40 -40v-3c1 -47 -31 -88 -76 -94h-2c-8 0 -15 6 -16 14s5 16 14 18c16 2 30 12 38 25c-21 1 -38 19 -38 40c0 22 18 40 40 40zM227 683v-3c1 -47 -31 -88 -76 -94h-2c-8 0 -15 6 -16 14s5 16 14 18c16 2 30 12 38 25c-21 1 -38 19 -38 40
c0 22 18 40 40 40s40 -18 40 -40z" />
    <glyph glyph-name="quoteleft" unicode="&#x2018;" horiz-adv-x="154" 
d="M124 707c1 -8 -5 -16 -14 -18c-16 -2 -29 -12 -38 -25c21 -1 38 -19 38 -40c0 -22 -18 -40 -40 -40s-40 18 -40 40v3c-1 47 32 88 76 94h2c8 0 15 -6 16 -14z" />
    <glyph glyph-name="quoteright" unicode="&#x2019;" horiz-adv-x="154" 
d="M124 683v-3c1 -47 -31 -88 -76 -94h-2c-8 0 -15 6 -16 14s5 16 14 18c16 2 30 12 38 25c-21 1 -38 19 -38 40c0 22 18 40 40 40s40 -18 40 -40z" />
    <glyph glyph-name="quotesinglbase" unicode="&#x201a;" horiz-adv-x="600" 
d="M124 40v-3c1 -47 -31 -88 -76 -94h-2c-8 0 -15 6 -16 14s5 16 14 18c16 2 30 12 38 25c-21 1 -38 19 -38 40c0 22 18 40 40 40s40 -18 40 -40z" />
    <glyph glyph-name="space" unicode=" " horiz-adv-x="260" 
 />
    <glyph glyph-name="dollar" unicode="$" 
d="M70 496c-16 0 -29 9 -36 22c-3 5 -4 11 -4 18c0 17 3 34 7 49c16 54 59 97 111 111v35c0 22 18 40 40 40s40 -18 40 -40v-36c67 -19 117 -83 117 -159c0 -7 -2 -13 -4 -18c-7 -13 -21 -22 -36 -22c-16 0 -30 9 -36 22c-3 5 -4 11 -4 18c0 23 -9 45 -24 61
c-15 15 -34 24 -54 24s-39 -9 -53 -24c-16 -16 -24 -38 -24 -61c0 -7 -2 -13 -4 -18c-7 -13 -20 -22 -36 -22zM70 477c26 0 48 18 55 42l195 -297c-5 1 -10 2 -15 2c-26 0 -48 -17 -55 -41l-195 296c5 -1 10 -2 15 -2zM305 207c15 0 29 -9 36 -23c2 -5 4 -11 4 -17
c0 -18 -3 -34 -8 -50c-16 -54 -57 -95 -109 -110v-36c0 -22 -18 -40 -40 -40s-40 18 -40 40v35c-67 19 -118 84 -118 161c0 6 1 12 4 17c7 14 20 23 36 23s29 -9 36 -23c2 -5 4 -11 4 -17c0 -23 8 -45 24 -61c14 -16 33 -25 53 -25s39 9 54 25s24 38 24 61c0 6 1 12 4 17
c6 14 20 23 36 23z" />
    <glyph glyph-name="Euro" unicode="&#x20ac;" horiz-adv-x="451" 
d="M421 534c0 91 -70 165 -157 165s-157 -74 -157 -165v-87h80v87c0 23 8 45 23 61s34 24 54 24s39 -8 54 -24s23 -38 23 -61c0 -22 18 -40 40 -40s40 18 40 40zM327 390c0 22 -18 40 -40 40h-217c-22 0 -40 -18 -40 -40s18 -40 40 -40h217c22 0 40 18 40 40zM327 291
c0 22 -18 40 -40 40h-217c-22 0 -40 -18 -40 -40s18 -40 40 -40h217c22 0 40 18 40 40zM421 164c0 22 -18 40 -40 40s-40 -18 -40 -40c0 -24 -8 -45 -23 -61s-34 -25 -54 -25s-39 9 -54 25s-23 37 -23 61v70h-80v-70c0 -92 70 -166 157 -166s157 74 157 166z" />
    <glyph glyph-name="sterling" unicode="&#xa3;" horiz-adv-x="438" 
d="M394 534c0 91 -70 165 -157 165s-157 -74 -157 -165v-138h80v138c0 23 8 45 23 61s34 24 54 24s39 -8 54 -24s23 -38 23 -61c0 -22 18 -40 40 -40s40 18 40 40zM318 339c0 22 -18 40 -40 40h-201c-22 0 -40 -18 -40 -40c0 -23 18 -41 40 -41h201c22 0 40 18 40 41zM80 97
h80v184h-80v-184zM408 40c0 22 -18 40 -40 40h-298c-22 0 -40 -18 -40 -40s18 -40 40 -40h298c22 0 40 18 40 40z" />
    <glyph glyph-name="divide" unicode="&#xf7;" horiz-adv-x="317" 
d="M118 459c0 -22 18 -40 41 -40c22 0 40 18 40 40s-18 40 -40 40c-23 0 -41 -18 -41 -40zM50 305h217c22 0 40 18 40 40s-18 40 -40 40h-217c-22 0 -40 -18 -40 -40s18 -40 40 -40zM118 233c0 -22 18 -40 41 -40c22 0 40 18 40 40s-18 40 -40 40c-23 0 -41 -18 -41 -40z
" />
    <glyph glyph-name="equal" unicode="=" horiz-adv-x="357" 
d="M327 405c0 22 -18 40 -40 40h-217c-22 0 -40 -18 -40 -40s18 -40 40 -40h217c22 0 40 18 40 40zM327 285c0 22 -18 40 -40 40h-217c-22 0 -40 -18 -40 -40s18 -40 40 -40h217c22 0 40 18 40 40z" />
    <glyph glyph-name="greater" unicode="&#x3e;" horiz-adv-x="315" 
d="M244 220c10 0 21 4 28 12c16 15 18 38 0 56l-175 173c-16 15 -41 16 -56 0c-16 -15 -16 -41 0 -56l175 -173c8 -8 18 -12 28 -12zM99 58l145 145c-16 0 -30 6 -41 17l-28 28l-133 -133c-16 -16 -15 -41 0 -57c8 -8 18 -12 28 -12c11 0 21 4 29 12z" />
    <glyph glyph-name="less" unicode="&#x3c;" horiz-adv-x="315" 
d="M70 220c10 0 20 4 28 12l175 173c16 15 16 41 0 56c-15 16 -40 15 -56 0l-175 -173c-18 -18 -16 -41 0 -56c7 -8 18 -12 28 -12zM70 203l145 -145c8 -8 18 -12 29 -12c10 0 20 4 28 12c15 16 16 41 0 57l-133 133l-28 -28c-11 -11 -25 -17 -41 -17z" />
    <glyph glyph-name="minus" unicode="&#x2212;" horiz-adv-x="477" 
d="M70 305h337c22 0 40 18 40 40s-18 40 -40 40h-337c-22 0 -40 -18 -40 -40s18 -40 40 -40z" />
    <glyph glyph-name="multiply" unicode="&#xd7;" horiz-adv-x="357" 
d="M167 414l-37 37c-15 15 -41 15 -56 0c-16 -16 -16 -41 0 -57l37 -36zM284 450c-16 16 -41 16 -57 0l-153 -153c-16 -16 -16 -41 0 -57c15 -15 41 -15 56 0l154 154c15 15 15 41 0 56zM191 277l36 -36c16 -16 41 -16 57 0c15 15 15 41 0 56l-36 36z" />
    <glyph glyph-name="notequal" unicode="&#x2260;" horiz-adv-x="600" 
d="M353 696c20 -9 29 -33 20 -53l-92 -198h6c22 0 40 -18 40 -40s-18 -40 -40 -40h-43l-18 -40h61c22 0 40 -18 40 -40s-18 -40 -40 -40h-98l-103 -222c-7 -14 -21 -23 -36 -23c-6 0 -12 1 -17 4c-20 9 -29 33 -20 53l87 188h-30c-22 0 -40 18 -40 40s18 40 40 40h67l19 40
h-86c-22 0 -40 18 -40 40s18 40 40 40h123l107 231c10 20 33 29 53 20z" />
    <glyph glyph-name="percent" unicode="%" horiz-adv-x="555" 
d="M118 0c15 0 29 8 36 22l319 619c10 20 2 44 -18 54c-19 10 -43 2 -53 -17l-319 -620c-10 -19 -3 -43 17 -54c6 -3 12 -4 18 -4zM232 599c11 0 21 -4 29 -11c-5 63 -55 112 -115 112c-61 0 -111 -49 -116 -112c8 7 19 11 30 11s22 -5 30 -12c4 31 27 54 56 54
c28 0 52 -23 56 -54c8 7 19 12 30 12zM262 552c0 5 -2 9 -3 13c-5 10 -15 17 -27 17s-22 -7 -26 -17c-2 -4 -3 -8 -3 -13c0 -34 -26 -62 -57 -62s-57 28 -57 62c0 5 -1 9 -3 13c-5 10 -15 17 -26 17c-12 0 -22 -7 -27 -17c-2 -4 -3 -8 -3 -13c0 -67 52 -121 116 -121
s116 54 116 121zM496 168c11 0 21 -4 29 -10c-5 62 -55 111 -116 111c-60 0 -110 -49 -115 -111c8 6 18 10 29 10c12 0 22 -4 30 -11c4 30 28 53 56 53c29 0 52 -23 56 -53c9 7 19 11 31 11zM525 122c0 4 -1 9 -3 13c-5 9 -15 16 -26 16c-12 0 -22 -7 -27 -16
c-2 -4 -3 -9 -3 -13c0 -35 -25 -63 -57 -63c-31 0 -56 28 -56 63c0 4 -1 9 -3 13c-5 9 -15 16 -27 16c-11 0 -22 -7 -26 -16c-2 -4 -3 -9 -3 -13c0 -67 52 -122 115 -122c64 0 116 55 116 122z" />
    <glyph glyph-name="plus" unicode="+" horiz-adv-x="357" 
d="M219 402v52c0 22 -18 40 -40 40s-40 -18 -40 -40v-52h80zM327 345c0 22 -18 40 -40 40h-217c-22 0 -40 -18 -40 -40s18 -40 40 -40h217c22 0 40 18 40 40zM139 288v-51c0 -22 18 -40 40 -40s40 18 40 40v51h-80z" />
    <glyph glyph-name="bar" unicode="|" horiz-adv-x="140" 
d="M110 -50v801c0 22 -18 40 -40 40s-40 -18 -40 -40v-801c0 -22 18 -40 40 -40s40 18 40 40z" />
    <glyph glyph-name="at" unicode="@" horiz-adv-x="610" 
d="M549 175c33 36 31 92 31 103v168c0 39 -7 76 -22 109c-14 33 -34 61 -60 85c-50 47 -119 73 -194 73c-74 0 -143 -26 -193 -73c-26 -24 -46 -52 -60 -85c-15 -33 -22 -70 -22 -109v-178c0 -40 7 -77 22 -110c14 -33 34 -61 60 -85c50 -47 119 -73 193 -73
c52 0 101 12 144 36c15 9 21 29 12 44c-8 16 -28 21 -44 13c-32 -19 -71 -28 -112 -28c-58 0 -111 19 -149 55c-40 37 -61 88 -61 148v178c0 59 21 110 61 147c38 36 91 55 149 55c59 0 112 -19 150 -55c40 -37 61 -88 61 -147v-169v-3c0 -7 0 -40 -14 -55
c-4 -5 -11 -11 -28 -11c-16 0 -23 6 -27 10c-11 13 -14 37 -14 50v9c0 6 -1 10 -3 15c-6 11 -17 18 -29 18c-13 0 -24 -7 -29 -18c-3 -5 -4 -9 -4 -15c0 -18 -7 -36 -19 -49s-27 -20 -44 -20c-16 0 -31 7 -43 20s-19 31 -19 49c0 6 -1 10 -4 15c-5 11 -16 18 -29 18
c-12 0 -23 -7 -29 -18c-2 -5 -3 -9 -3 -15c0 -73 57 -133 127 -133h1c34 0 65 14 88 37l5 -6c19 -21 45 -31 75 -31c31 0 57 10 76 31zM432 311v124c0 74 -57 134 -128 134c-34 0 -65 -11 -88 -31c-25 -23 -39 -54 -39 -90c0 -18 14 -32 32 -32s33 14 33 32c0 17 5 31 17 41
c11 10 27 15 45 15c17 0 32 -7 44 -20s19 -30 19 -49v-52c-18 11 -40 17 -63 17c-52 0 -98 -34 -117 -82c6 4 14 6 22 6c18 0 33 -10 41 -24c3 6 7 11 11 16c12 13 27 19 43 19c17 0 32 -6 44 -19c4 -5 8 -10 11 -16c2 4 5 7 8 11c9 8 20 13 33 13c8 0 16 -2 22 -6
c4 -2 7 -5 10 -7z" />
    <glyph glyph-name="ampersand" unicode="&#x26;" horiz-adv-x="501" 
d="M454 10c18 13 22 38 10 56l-99 140l-229 327c5 50 44 88 91 88c50 0 91 -45 91 -100c0 -22 18 -40 40 -40c23 0 41 18 41 40c0 100 -77 181 -172 181s-172 -81 -172 -181c0 -8 2 -16 7 -23l74 -105l47 -66l137 -196l48 -68l30 -43c8 -11 20 -17 33 -17c8 0 16 2 23 7z
M355 51l-46 66c-22 -24 -51 -37 -82 -37s-60 13 -82 36c-22 25 -35 57 -35 92v1c0 45 23 87 58 109l-46 66c-20 -14 -38 -31 -53 -51c-25 -36 -39 -79 -39 -125v-1c0 -114 88 -207 197 -207c34 0 67 9 97 27c11 7 22 15 31 24zM425 150l41 68c11 19 5 43 -14 55
c-19 11 -44 5 -55 -14l-22 -37z" />
    <glyph glyph-name="trademark" unicode="&#x2122;" horiz-adv-x="953" 
d="M348 660c0 22 -18 40 -40 40h-253c-22 0 -40 -18 -40 -40s18 -40 40 -40h89v-95c10 10 24 16 40 16c15 0 29 -6 40 -16v95h84c22 0 40 18 40 40zM923 40v494c0 91 -71 165 -158 165c-41 0 -78 -16 -106 -43c19 -22 33 -48 41 -78c3 6 7 12 12 17c14 15 33 24 53 24
s39 -9 54 -24c15 -16 24 -38 24 -61v-494c0 -22 18 -40 40 -40s40 18 40 40zM688 533v5c-1 40 -16 77 -40 105c-29 34 -71 55 -117 55c-87 0 -158 -74 -158 -165v-4c2 -21 19 -37 40 -37s38 16 40 37v4c0 47 35 85 78 85c42 0 77 -38 77 -85v-4c2 -21 19 -37 40 -37
s38 16 40 37v4zM224 484v4c-2 21 -19 36 -40 36s-38 -16 -40 -36v-4v-444c0 -22 18 -40 40 -40s40 18 40 40v444zM413 475c-15 0 -29 7 -40 17v-452c0 -22 18 -40 40 -40s40 18 40 40v452c-10 -10 -24 -17 -40 -17zM688 40v452c-10 -10 -25 -17 -40 -17c-16 0 -30 7 -40 17
v-452c0 -22 18 -40 40 -40s40 18 40 40z" />
    <glyph glyph-name="degree" unicode="&#xb0;" horiz-adv-x="292" 
d="M232 599c11 0 21 -4 29 -11c-5 63 -55 112 -115 112c-61 0 -111 -49 -116 -112c8 7 19 11 30 11s22 -5 30 -12c4 31 27 54 56 54c28 0 52 -23 56 -54c8 7 19 12 30 12zM262 552c0 5 -2 9 -3 13c-5 10 -15 17 -27 17s-22 -7 -26 -17c-2 -4 -3 -8 -3 -13
c0 -34 -26 -62 -57 -62s-57 28 -57 62c0 5 -1 9 -3 13c-5 10 -15 17 -26 17c-12 0 -22 -7 -27 -17c-2 -4 -3 -8 -3 -13c0 -67 52 -121 116 -121s116 54 116 121z" />
    <glyph glyph-name="asciicircum" unicode="^" horiz-adv-x="289" 
d="M255 739c8 12 5 30 -7 38l-79 55c-3 2 -6 3 -10 5c-5 1 -10 2 -14 2c-8 0 -17 -2 -24 -7l-79 -55c-10 -7 -15 -20 -10 -32c5 -14 21 -22 35 -17l78 31l77 -31c12 -5 25 0 33 11z" />
    <glyph glyph-name="acute" unicode="&#xb4;" horiz-adv-x="214" 
d="M67 738l91 33c3 1 6 3 9 5c18 12 23 37 10 56c-12 18 -38 23 -56 10l-79 -54c-10 -7 -15 -21 -10 -33c5 -14 21 -22 35 -17z" />
    <glyph glyph-name="cedilla" unicode="&#xb8;" horiz-adv-x="204" 
d="M120 -38l53 54c1 0 1 0 1 1c0 0 -1 0 -1 1l-35 25h-2l-42 -42l-23 -23c11 -2 28 -5 45 -13zM58 -232c56 0 102 43 102 97c0 53 -46 97 -102 97c-15 0 -28 -13 -28 -28c0 -16 13 -28 28 -28c26 0 46 -19 46 -41c0 -23 -20 -41 -46 -41c-15 0 -28 -13 -28 -28
c0 -16 13 -28 28 -28z" />
    <glyph glyph-name="circumflex" unicode="&#x2c6;" horiz-adv-x="289" 
d="M255 739c8 12 5 30 -7 38l-79 55c-3 2 -6 3 -10 5c-5 1 -10 2 -14 2c-8 0 -17 -2 -24 -7l-79 -55c-10 -7 -15 -20 -10 -32c5 -14 21 -22 35 -17l78 31l77 -31c12 -5 25 0 33 11z" />
    <glyph glyph-name="dieresis" unicode="&#xa8;" horiz-adv-x="253" 
d="M30 773c0 -22 18 -40 40 -40s40 18 40 40c0 23 -18 41 -40 41s-40 -18 -40 -41zM142 773c0 -22 18 -40 40 -40c23 0 41 18 41 40c0 23 -18 41 -41 41c-22 0 -40 -18 -40 -41z" />
    <glyph glyph-name="dotaccent" unicode="&#x2d9;" horiz-adv-x="140" 
d="M30 685c0 -22 18 -40 40 -40s40 18 40 40s-18 40 -40 40s-40 -18 -40 -40z" />
    <glyph glyph-name="grave" unicode="`" horiz-adv-x="214" 
d="M56 771l91 -33c14 -5 30 3 35 17c5 12 0 26 -10 33l-79 54c-18 13 -44 8 -56 -10c-13 -19 -8 -44 10 -56c3 -2 6 -4 9 -5z" />
    <glyph glyph-name="ring" unicode="&#x2da;" horiz-adv-x="292" 
d="M232 599c11 0 21 -4 29 -11c-5 63 -55 112 -115 112c-61 0 -111 -49 -116 -112c8 7 19 11 30 11s22 -5 30 -12c4 31 27 54 56 54c28 0 52 -23 56 -54c8 7 19 12 30 12zM262 552c0 5 -2 9 -3 13c-5 10 -15 17 -27 17s-22 -7 -26 -17c-2 -4 -3 -8 -3 -13
c0 -34 -26 -62 -57 -62s-57 28 -57 62c0 5 -1 9 -3 13c-5 10 -15 17 -26 17c-12 0 -22 -7 -27 -17c-2 -4 -3 -8 -3 -13c0 -67 52 -121 116 -121s116 54 116 121z" />
    <glyph glyph-name="tilde" unicode="&#x2dc;" horiz-adv-x="323" 
d="M202 805l-59 35c-8 5 -20 6 -29 0l-73 -53c-8 -6 -12 -15 -10 -25c3 -12 16 -20 28 -17l71 27l61 -33c7 -4 16 -2 23 2l68 44c10 7 14 20 9 32s-20 17 -33 12z" />
    </font>
</defs>
</svg>
